<svg viewBox="0 0 409.514 545.631">
  <defs>
    <clipPath id="clip-path">
      <path id="Path_19162" data-name="Path 19162" d="M146.26,205.818s-8.472,26.794-8.926,38.393S153.4,271.4,162.719,280.37s25.92,12.96,49.1,12.053,43.3-11.6,43.3-11.6-.437,70.971,0,87.479,1.8,190.623,1.8,190.623H414.949s-4.018-163.391-2.689-182.588,9.833-74.989,9.833-74.989,59.372,27.669,72.753,27.669,45.538-35.64,44.209-45.084-47.773-36.612-63.843-50.009-22.323-26.325-33.485-31.687-61.559-16.524-72.769-17.82-71.862,2.219-88.386,3.11-44.193,29.03-50.884,33.939a151.734,151.734,0,0,1-16.086,9.817s2.689-3.127-1.782-4.018a38.5,38.5,0,0,0-6.691-.891s-2.236-25.92-4.018-28.576-28.123-8.926-37.94-8.1S146.26,205.818,146.26,205.818Z" transform="translate(-137.324 -184.135)" fill="#fff" stroke="#000" stroke-linecap="round" stroke-linejoin="round" stroke-width="1.143"/>
    </clipPath>
    <clipPath id="clip-path-2">
      <path id="Path_19185" data-name="Path 19185" d="M261.877,136.347a76.966,76.966,0,0,1-10.011-15.26c-3.807-8.1-9.056-21.449.956-29.548s48.6-13.349,67.229-10.967,34.327,21.449,49.1,48.146,19.553,47.206,16.2,56.262-16.686,19.067-32.4,18.6-24.786-17.172-33.841-25.741-37.259-26.227-41-30.051a160.861,160.861,0,0,0-13.835-10.951Z" transform="translate(-247.043 -79.994)" fill="#fff" stroke="#263238" stroke-linecap="round" stroke-linejoin="round" stroke-width="1.143"/>
    </clipPath>
    <clipPath id="clip-path-3">
      <path id="Path_19197" data-name="Path 19197" d="M334.714,159.987c0-1.426-7.16-18.111-19.553-30.034s-36.239-14.774-44.339-14.3-11.923,4.293-11.923,4.293-8.57,31.476-12.863,42.443a44.6,44.6,0,0,0-.356,29.289,113.856,113.856,0,0,0,11.793,24.105c7.16,11.437,7.16,42.913,7.16,42.913s35.753-16.2,40.046-21.935,1.9-25.741,3.807-35.283a31.507,31.507,0,0,1,1.717-5.686,28.672,28.672,0,0,0,5.443-8.618S334.714,161.478,334.714,159.987Z" transform="translate(-243.381 -115.6)" fill="#fff" stroke="#263238" stroke-linecap="round" stroke-linejoin="round" stroke-width="1.143"/>
    </clipPath>
    <clipPath id="clip-path-4">
      <path id="Path_19211" data-name="Path 19211" d="M206.57,178.272a24.98,24.98,0,0,0,49-8.732Z" transform="translate(-206.57 -169.54)" fill="#fff" stroke="#191919" stroke-linecap="round" stroke-linejoin="round" stroke-width="1.143"/>
    </clipPath>
    <clipPath id="clip-path-5">
      <path id="Path_19219" data-name="Path 19219" d="M192.631,128.91s-7.144,14.272-7.144,20.525V173.1s-27.669,29.014-29.014,36.6-4.86,25.92,0,25.92,27.685-21.886,29.467-26.341,12.49-33.922,12.49-33.922a24.01,24.01,0,0,1,3.127-4.018c1.782-1.8,2.236-13.4,2.236-13.4s4.86-.454,4.86-3.127V138.776C208.7,135.147,192.631,128.91,192.631,128.91Z" transform="translate(-153.982 -128.91)" fill="#fff" stroke="#263238" stroke-linecap="round" stroke-linejoin="round" stroke-width="1.143"/>
    </clipPath>
    <clipPath id="clip-path-6">
      <path id="Path_19231" data-name="Path 19231" d="M330.026,296.843s-4.471,5.8-8.926,8.1a47.417,47.417,0,0,0-16.524,15.617c-5.362,8.1-12.053,15.179-8.1,18.306a14.337,14.337,0,0,0,8.1,3.127s2.673,6.253,6.253,6.69a47.792,47.792,0,0,0,5.362.454s3.11,3.127,4.86,3.127H325.6s1.782,2.236,5.8,0,8.1-15.633,9.38-20.088,1.345-13.851,1.345-13.851l6.253-8.926L334.092,295.11Z" transform="translate(-295.284 -295.11)" fill="#fff" stroke="#263238" stroke-linecap="round" stroke-linejoin="round" stroke-width="1.143"/>
    </clipPath>
    <clipPath id="clip-path-7">
      <path id="Path_19237" data-name="Path 19237" d="M327.009,172.178l12.879-12.96c6.885-6.885-5.2-20.25-9.574-25.191a91.253,91.253,0,0,0-37.762-25.239c-8.8-3.143-27.912-9.1-32.756,2.77l-8.586,20.963s23.36-1.9,43.383,8.586S327.009,172.178,327.009,172.178Z" transform="translate(-251.21 -104.481)" fill="#fff" stroke="#263238" stroke-linecap="round" stroke-linejoin="round" stroke-width="1.143"/>
    </clipPath>
  </defs>
  <g id="Group_17866" data-name="Group 17866" transform="translate(-209.927 -207.1)">
    <path id="Path_16738" data-name="Path 16738" d="M1065.6,2967.483H688.592c-1.155,0-2.092-.332-2.092-.742s.936-.742,2.092-.742H1065.6c1.155,0,2.092.332,2.092.742S1066.752,2967.483,1065.6,2967.483Z" transform="translate(-466.004 -2214.752)"/>
    <g id="freepik--Character--inject-8" transform="translate(73.174 127.758)">
      <path id="Path_19154" data-name="Path 19154" d="M146.26,205.818s-8.472,26.794-8.926,38.393S153.4,271.4,162.719,280.37s25.92,12.96,49.1,12.053,43.3-11.6,43.3-11.6-.437,70.971,0,87.479,1.8,190.623,1.8,190.623H414.949s-4.018-163.391-2.689-182.588,9.833-74.989,9.833-74.989,59.372,27.669,72.753,27.669,45.538-35.64,44.209-45.084-47.773-36.612-63.843-50.009-22.323-26.325-33.485-31.687-61.559-16.524-72.769-17.82-71.862,2.219-88.386,3.11-44.193,29.03-50.884,33.939a151.734,151.734,0,0,1-16.086,9.817s2.689-3.127-1.782-4.018a38.5,38.5,0,0,0-6.691-.891s-2.236-25.92-4.018-28.576-28.123-8.926-37.94-8.1S146.26,205.818,146.26,205.818Z" transform="translate(0 64.565)" fill="#fff"/>
      <g id="Group_16330" data-name="Group 16330" transform="translate(137.324 248.7)" clip-path="url(#clip-path)">
        <path id="Path_19160" data-name="Path 19160" d="M211.521,457.187H369.566s-1.247-50.381-2.122-98.462L210.63,348.26C211.084,400.148,211.521,457.187,211.521,457.187Z" transform="translate(-91.876 -82.381)"/>
      </g>
      <path id="Path_19163" data-name="Path 19163" d="M146.26,205.818s-8.472,26.794-8.926,38.393S153.4,271.4,162.719,280.37s25.92,12.96,49.1,12.053,43.3-11.6,43.3-11.6-.437,70.971,0,87.479,1.8,190.623,1.8,190.623H414.949s-4.018-163.391-2.689-182.588,9.833-74.989,9.833-74.989,59.372,27.669,72.753,27.669,45.538-35.64,44.209-45.084-47.773-36.612-63.843-50.009-22.323-26.325-33.485-31.687-61.559-16.524-72.769-17.82-71.862,2.219-88.386,3.11-44.193,29.03-50.884,33.939a151.734,151.734,0,0,1-16.086,9.817s2.689-3.127-1.782-4.018a38.5,38.5,0,0,0-6.691-.891s-2.236-25.92-4.018-28.576-28.123-8.926-37.94-8.1S146.26,205.818,146.26,205.818Z" transform="translate(0 64.565)" fill="none" stroke="#000" stroke-linecap="round" stroke-linejoin="round" stroke-width="1.143"/>
      <path id="Path_19164" data-name="Path 19164" d="M215.41,219.728l-.891,41.52-11.6-45.538" transform="translate(40.668 84.141)" fill="none" stroke="#000" stroke-linecap="round" stroke-linejoin="round" stroke-width="1.143"/>
      <path id="Path_19165" data-name="Path 19165" d="M190.516,210.2S173.1,232.961,161,235.2" transform="translate(14.678 80.725)" fill="none" stroke="#263238" stroke-linecap="round" stroke-linejoin="round" stroke-width="1.143"/>
      <path id="Path_19166" data-name="Path 19166" d="M189.063,213.23s-5.8,11.615-12.053,12.96" transform="translate(24.604 82.604)" fill="none" stroke="#263238" stroke-linecap="round" stroke-linejoin="round" stroke-width="1.143"/>
      <path id="Path_19167" data-name="Path 19167" d="M322.443,239.3l-7.581,28.139L310.39,238.86" transform="translate(107.297 98.494)" fill="none" stroke="#000" stroke-linecap="round" stroke-linejoin="round" stroke-width="1.143"/>
      <path id="Path_19168" data-name="Path 19168" d="M266.39,206.89l-15.633,12.944L237.36,542.6" transform="translate(62.02 78.673)" fill="none" stroke="#000" stroke-linecap="round" stroke-linejoin="round" stroke-width="1.143"/>
      <path id="Path_19169" data-name="Path 19169" d="M252.219,231.56a2.9,2.9,0,1,1-2.9-2.9,2.9,2.9,0,0,1,2.9,2.9Z" transform="translate(67.637 92.17)"/>
      <path id="Path_19170" data-name="Path 19170" d="M272.1,231.56a2.9,2.9,0,1,1-2.9-2.9,2.9,2.9,0,0,1,2.9,2.9Z" transform="translate(79.962 92.17)"/>
      <path id="Path_19171" data-name="Path 19171" d="M251.569,266.11a2.9,2.9,0,1,1-2.9-2.9,2.9,2.9,0,0,1,2.9,2.9Z" transform="translate(67.234 113.59)"/>
      <path id="Path_19172" data-name="Path 19172" d="M271.41,266.11a2.9,2.9,0,1,1-2.9-2.9,2.9,2.9,0,0,1,2.9,2.9Z" transform="translate(79.534 113.59)"/>
      <path id="Path_19173" data-name="Path 19173" d="M250.88,305.28a2.9,2.9,0,1,1-2.9-2.9,2.9,2.9,0,0,1,2.9,2.9Z" transform="translate(66.806 137.875)"/>
      <path id="Path_19174" data-name="Path 19174" d="M270.72,305.28a2.9,2.9,0,1,1-2.9-2.9,2.9,2.9,0,0,1,2.9,2.9Z" transform="translate(79.107 137.875)"/>
      <path id="Path_19175" data-name="Path 19175" d="M179.562,167.49s-11.615,0-15.633,1.328-18.743,28.576-22.68,38.393A44.4,44.4,0,0,0,138.56,227.3l21.432-10.271,6.253,28.576s33.922-26.778,38.393-35.64-5.8-33.939-5.8-33.939Z" transform="translate(0.636 54.246)" stroke="#000" stroke-linecap="round" stroke-linejoin="round" stroke-width="1.143"/>
      <path id="Path_19176" data-name="Path 19176" d="M264.96,181.87s-21.432,5.8-23.668,16.524,16.07,27.669,19.65,30.78,36.6-3.58,51.337-7.144,34.376-12.96,33.922-20.541-9.38-10.708-12.053-16.961-4.471-9.817-12.506-10.708a153.331,153.331,0,0,0-24.105-.454C294.4,173.835,264.96,181.87,264.96,181.87Z" transform="translate(64.341 57.718)" fill="#e23744" stroke="#000" stroke-linecap="round" stroke-linejoin="round" stroke-width="1.143"/>
      <path id="Path_19177" data-name="Path 19177" d="M265.193,208.439s-2.236-4.455-10.724-4.018-15.179,9.817-15.179,9.817S255.814,217.819,265.193,208.439Z" transform="translate(63.216 77.124)" fill="#e23744" stroke="#000" stroke-linecap="round" stroke-linejoin="round" stroke-width="1.143"/>
      <path id="Path_19178" data-name="Path 19178" d="M255.8,207.978s3.564-6.691,10.708.454S278.1,227.6,278.1,227.6s-9.363,4.018-18.29-5.362S255.8,207.978,255.8,207.978Z" transform="translate(72.615 77.585)" fill="#e23744" stroke="#000" stroke-linecap="round" stroke-linejoin="round" stroke-width="1.143"/>
      <path id="Path_19179" data-name="Path 19179" d="M317.622,183.47s.454,8.489-15.633,16.961a253.771,253.771,0,0,1-35.639,14.726" transform="translate(79.993 64.153)" fill="none" stroke="#fff" stroke-linecap="round" stroke-linejoin="round" stroke-width="1.143"/>
      <path id="Path_19180" data-name="Path 19180" d="M281.22,198.48s11.988-7.695,13.77-12.96-3.564-8.1-3.564-8.1" transform="translate(89.212 60.402)" fill="none" stroke="#fff" stroke-linecap="round" stroke-linejoin="round" stroke-width="1.143"/>
      <path id="Path_19181" data-name="Path 19181" d="M259.934,218.741s-10.724-12.96-10.724-22.68,4.018-11.162,4.018-11.162" transform="translate(69.367 65.04)" fill="none" stroke="#fff" stroke-linecap="round" stroke-linejoin="round" stroke-width="1.143"/>
      <path id="Path_19182" data-name="Path 19182" d="M261.877,136.347a76.966,76.966,0,0,1-10.011-15.26c-3.807-8.1-9.056-21.449.956-29.548s48.6-13.349,67.229-10.967,34.327,21.449,49.1,48.146,19.553,47.206,16.2,56.262-16.686,19.067-32.4,18.6-24.786-17.172-33.841-25.741-37.259-26.227-41-30.051a160.861,160.861,0,0,0-13.835-10.951Z" transform="translate(68.023 0)" fill="#fff"/>
      <path id="Path_19186" data-name="Path 19186" d="M261.877,136.347a76.966,76.966,0,0,1-10.011-15.26c-3.807-8.1-9.056-21.449.956-29.548s48.6-13.349,67.229-10.967,34.327,21.449,49.1,48.146,19.553,47.206,16.2,56.262-16.686,19.067-32.4,18.6-24.786-17.172-33.841-25.741-37.259-26.227-41-30.051a160.861,160.861,0,0,0-13.835-10.951Z" transform="translate(68.023 0)" fill="none" stroke="#000" stroke-linecap="round" stroke-linejoin="round" stroke-width="1.143"/>
      <path id="Path_19187" data-name="Path 19187" d="M269.83,109.39s-4.73-2.624-12.62-12.62" transform="translate(74.326 10.401)" fill="none" stroke="#000" stroke-linecap="round" stroke-linejoin="round" stroke-width="1.143"/>
      <path id="Path_19188" data-name="Path 19188" d="M267.743,96.491a15.81,15.81,0,0,1-.13-4.261" transform="translate(80.722 7.586)" fill="none" stroke="#000" stroke-linecap="round" stroke-linejoin="round" stroke-width="1.143"/>
      <path id="Path_19189" data-name="Path 19189" d="M274.93,110.857A61.46,61.46,0,0,1,268.45,97.8" transform="translate(81.295 11.039)" fill="none" stroke="#000" stroke-linecap="round" stroke-linejoin="round" stroke-width="1.143"/>
      <path id="Path_19190" data-name="Path 19190" d="M296.15,118.85s13.154,2.624,24.721.535" transform="translate(98.468 24.09)" fill="none" stroke="#000" stroke-linecap="round" stroke-linejoin="round" stroke-width="1.143"/>
      <path id="Path_19191" data-name="Path 19191" d="M321.16,134.07h3.661" transform="translate(113.974 33.526)" fill="none" stroke="#000" stroke-linecap="round" stroke-linejoin="round" stroke-width="1.143"/>
      <path id="Path_19192" data-name="Path 19192" d="M307.51,132.16a103.066,103.066,0,0,0,16.346,2.722" transform="translate(105.511 32.342)" fill="none" stroke="#000" stroke-linecap="round" stroke-linejoin="round" stroke-width="1.143"/>
      <path id="Path_19193" data-name="Path 19193" d="M305.94,138.32s13.073,14.223,22.534,16.848" transform="translate(104.538 36.161)" fill="none" stroke="#000" stroke-linecap="round" stroke-linejoin="round" stroke-width="1.143"/>
      <path id="Path_19194" data-name="Path 19194" d="M334.714,159.987c0-1.426-7.16-18.111-19.553-30.034s-36.239-14.774-44.339-14.3-11.923,4.293-11.923,4.293-8.57,31.476-12.863,42.443a44.6,44.6,0,0,0-.356,29.289,113.856,113.856,0,0,0,11.793,24.105c7.16,11.437,7.16,42.913,7.16,42.913s35.753-16.2,40.046-21.935,1.9-25.741,3.807-35.283a31.507,31.507,0,0,1,1.717-5.686,28.672,28.672,0,0,0,5.443-8.618S334.714,161.478,334.714,159.987Z" transform="translate(65.753 22.075)" fill="#fff"/>
      <path id="Path_19198" data-name="Path 19198" d="M334.714,159.987c0-1.426-7.16-18.111-19.553-30.034s-36.239-14.774-44.339-14.3-11.923,4.293-11.923,4.293-8.57,31.476-12.863,42.443a44.6,44.6,0,0,0-.356,29.289,113.856,113.856,0,0,0,11.793,24.105c7.16,11.437,7.16,42.913,7.16,42.913s35.753-16.2,40.046-21.935,1.9-25.741,3.807-35.283a31.507,31.507,0,0,1,1.717-5.686,28.672,28.672,0,0,0,5.443-8.618S334.714,161.478,334.714,159.987Z" transform="translate(65.753 22.075)" fill="none" stroke="#000" stroke-linecap="round" stroke-linejoin="round" stroke-width="1.143"/>
      <path id="Path_19199" data-name="Path 19199" d="M268.354,136.27s-1.426,5.719-6.188,7.614-10.967,1.442-9.072,4.779,9.072,5.233,9.072,5.233" transform="translate(71.558 34.89)" fill="none" stroke="#000" stroke-linecap="round" stroke-linejoin="round" stroke-width="1.143"/>
      <path id="Path_19200" data-name="Path 19200" d="M254.44,154.51s8.1,3.337,12.863.956" transform="translate(72.609 46.198)" fill="none" stroke="#000" stroke-linecap="round" stroke-linejoin="round" stroke-width="1.143"/>
      <path id="Path_19201" data-name="Path 19201" d="M272.4,139.21s-.956,8.1,9.056,6.674" transform="translate(83.728 36.713)" fill="none" stroke="#000" stroke-linecap="round" stroke-linejoin="round" stroke-width="1.143"/>
      <path id="Path_19202" data-name="Path 19202" d="M252.67,134.5s4.763,7.63,11.437,2.867" transform="translate(71.512 33.793)" fill="none" stroke="#000" stroke-linecap="round" stroke-linejoin="round" stroke-width="1.143"/>
      <path id="Path_19203" data-name="Path 19203" d="M273.86,132.577s8.586-2.867,12.393,7.63" transform="translate(84.649 32.379)" fill="none" stroke="#000" stroke-linecap="round" stroke-linejoin="round" stroke-width="1.143"/>
      <path id="Path_19204" data-name="Path 19204" d="M267.668,131.866s-5.719-8.586-13.818-2.4" transform="translate(72.243 29.283)" fill="none" stroke="#000" stroke-linecap="round" stroke-linejoin="round" stroke-width="1.143"/>
      <path id="Path_19205" data-name="Path 19205" d="M262.68,152.16s.47,7.144,4.277,8.586" transform="translate(77.718 44.741)" fill="none" stroke="#000" stroke-linecap="round" stroke-linejoin="round" stroke-width="1.143"/>
      <path id="Path_19206" data-name="Path 19206" d="M298.034,157.75s-13.349,16.2-22.4,19.067" transform="translate(85.746 48.207)" fill="none" stroke="#000" stroke-linecap="round" stroke-linejoin="round" stroke-width="1.143"/>
      <path id="Path_19207" data-name="Path 19207" d="M290.829,135.38s-6.2,7.4-5.508,13.656,10.335,12.506,13.089,12.506,10.335-11.34,10.335-11.34S297.795,138.231,290.829,135.38Z" transform="translate(91.721 34.338)" stroke="#000" stroke-linecap="round" stroke-linejoin="round" stroke-width="1.143"/>
      <path id="Path_19208" data-name="Path 19208" d="M277.815,122.671s-5.362,5.362-18.306,5.362a123.28,123.28,0,0,1-21.87-1.782S266.654,119.107,277.815,122.671Z" transform="translate(62.194 25.841)" stroke="#000" stroke-linecap="round" stroke-linejoin="round" stroke-width="1.143"/>
      <path id="Path_19209" data-name="Path 19209" d="M206.57,178.272a24.98,24.98,0,0,0,49-8.732Z" transform="translate(42.931 55.517)" fill="#fff"/>
      <g id="Group_16333" data-name="Group 16333" transform="translate(249.501 225.057)" clip-path="url(#clip-path-4)">
        <path id="Path_19210" data-name="Path 19210" d="M206.57,178.272a24.98,24.98,0,0,0,49-8.732Z" transform="translate(-206.57 -169.54)"/>
      </g>
      <path id="Path_19212" data-name="Path 19212" d="M206.57,178.272a24.98,24.98,0,0,0,49-8.732Z" transform="translate(42.931 55.517)" fill="none" stroke="#000" stroke-linecap="round" stroke-linejoin="round" stroke-width="1.143"/>
      <path id="Path_19213" data-name="Path 19213" d="M189.9,143.4a23.8,23.8,0,0,0,2.673-9.817c0-4.86-1.782-12.96-4.455-12.053s-2.673,7.581-2.236,9.817a16.847,16.847,0,0,1-.437,5.8s-2.236,4.018-.454,7.144S189.9,143.4,189.9,143.4Z" transform="translate(29.127 25.706)" fill="#fff" stroke="#000" stroke-linecap="round" stroke-linejoin="round" stroke-width="1.143"/>
      <path id="Path_19214" data-name="Path 19214" d="M228.829,215.79,180.456,111.982a5.135,5.135,0,0,0-6.853-2.462h0a5.119,5.119,0,0,0-2.4,6.917l2.122,4.261" transform="translate(20.672 17.998)" fill="none" stroke="#000" stroke-linecap="round" stroke-linejoin="round" stroke-width="1.143"/>
      <path id="Path_19215" data-name="Path 19215" d="M176.46,125.094s0,5.362,2.236,6.707,13.835,8.1,14.288,4.018-8.1-9.38-10.708-10.724S178.7,124.2,176.46,125.094Z" transform="translate(24.263 27.436)" fill="none" stroke="#000" stroke-linecap="round" stroke-linejoin="round" stroke-width="1.143"/>
      <path id="Path_19216" data-name="Path 19216" d="M192.631,128.91s-7.144,14.272-7.144,20.525V173.1s-27.669,29.014-29.014,36.6-4.86,25.92,0,25.92,27.685-21.886,29.467-26.341,12.49-33.922,12.49-33.922a24.01,24.01,0,0,1,3.127-4.018c1.782-1.8,2.236-13.4,2.236-13.4s4.86-.454,4.86-3.127V138.776C208.7,135.147,192.631,128.91,192.631,128.91Z" transform="translate(10.328 30.327)" fill="#fff"/>
      <path id="Path_19220" data-name="Path 19220" d="M192.631,128.91s-7.144,14.272-7.144,20.525V173.1s-27.669,29.014-29.014,36.6-4.86,25.92,0,25.92,27.685-21.886,29.467-26.341,12.49-33.922,12.49-33.922a24.01,24.01,0,0,1,3.127-4.018c1.782-1.8,2.236-13.4,2.236-13.4s4.86-.454,4.86-3.127V138.776C208.7,135.147,192.631,128.91,192.631,128.91Z" transform="translate(10.328 30.327)" fill="none" stroke="#000" stroke-linecap="round" stroke-linejoin="round" stroke-width="1.143"/>
      <path id="Path_19221" data-name="Path 19221" d="M186.949,148.19l-1.345-3.58-4.455.454" transform="translate(27.171 40.061)" fill="none" stroke="#000" stroke-linecap="round" stroke-linejoin="round" stroke-width="1.143"/>
      <line id="Line_625" data-name="Line 625" x2="15.179" y2="0.437" transform="translate(202.068 177.089)" fill="none" stroke="#000" stroke-linecap="round" stroke-linejoin="round" stroke-width="1.143"/>
      <line id="Line_626" data-name="Line 626" x2="14.726" y2="3.58" transform="translate(202.959 168.6)" fill="none" stroke="#000" stroke-linecap="round" stroke-linejoin="round" stroke-width="1.143"/>
      <path id="Path_19222" data-name="Path 19222" d="M388.581,252.659s-38.879,6.691-34.813,15.179l1.345,6.253s-28.123,35.639-26.794,37.049,51.839,31.249,53.573,31.249,33.485-56.7,40.175-67.861,7.6-21.416-.891-26.778-17.82-10.271-17.82-10.271" transform="translate(118.383 97.638)" fill="#fff"/>
      <path id="Path_19226" data-name="Path 19226" d="M388.581,252.659s-38.879,6.691-34.813,15.179l1.345,6.253s-28.123,35.639-26.794,37.049,51.839,31.249,53.573,31.249,33.485-56.7,40.175-67.861,7.6-21.416-.891-26.778-17.82-10.271-17.82-10.271" transform="translate(118.383 97.638)" fill="none" stroke="#000" stroke-linecap="round" stroke-linejoin="round" stroke-width="1.143"/>
      <path id="Path_19227" data-name="Path 19227" d="M348.42,259.269s13.835-5.346,23.652,4.471,11.615,13.835,11.615,13.835a29.16,29.16,0,0,0-11.162-20.525" transform="translate(130.875 109.771)" fill="none" stroke="#000" stroke-linecap="round" stroke-linejoin="round" stroke-width="1.143"/>
      <path id="Path_19228" data-name="Path 19228" d="M330.026,296.843s-4.471,5.8-8.926,8.1a47.417,47.417,0,0,0-16.524,15.617c-5.362,8.1-12.053,15.179-8.1,18.306a14.337,14.337,0,0,0,8.1,3.127s2.673,6.253,6.253,6.69a47.792,47.792,0,0,0,5.362.454s3.11,3.127,4.86,3.127H325.6s1.782,2.236,5.8,0,8.1-15.633,9.38-20.088,1.345-13.851,1.345-13.851l6.253-8.926L334.092,295.11Z" transform="translate(97.931 133.367)" fill="#fff"/>
      <path id="Path_19232" data-name="Path 19232" d="M330.026,296.843s-4.471,5.8-8.926,8.1a47.417,47.417,0,0,0-16.524,15.617c-5.362,8.1-12.053,15.179-8.1,18.306a14.337,14.337,0,0,0,8.1,3.127s2.673,6.253,6.253,6.69a47.792,47.792,0,0,0,5.362.454s3.11,3.127,4.86,3.127H325.6s1.782,2.236,5.8,0,8.1-15.633,9.38-20.088,1.345-13.851,1.345-13.851l6.253-8.926L334.092,295.11Z" transform="translate(97.931 133.367)" fill="none" stroke="#000" stroke-linecap="round" stroke-linejoin="round" stroke-width="1.143"/>
      <path id="Path_19233" data-name="Path 19233" d="M335.174,279.64s52.666,27.685,55.792,29.467,4.471,7.144,3.58,12.96,5.346,27.685-1.345,27.685-35.721-8.926-52.682-18.306-25.45-23.214-25.45-25S335.174,279.64,335.174,279.64Z" transform="translate(110.198 123.776)" stroke="#000" stroke-linecap="round" stroke-linejoin="round" stroke-width="1.143"/>
      <path id="Path_19234" data-name="Path 19234" d="M327.009,172.178l12.879-12.96c6.885-6.885-5.2-20.25-9.574-25.191a91.253,91.253,0,0,0-37.762-25.239c-8.8-3.143-27.912-9.1-32.756,2.77l-8.586,20.963s23.36-1.9,43.383,8.586S327.009,172.178,327.009,172.178Z" transform="translate(70.607 15.182)" fill="#fff"/>
      <path id="Path_19238" data-name="Path 19238" d="M327.009,172.178l12.879-12.96c6.885-6.885-5.2-20.25-9.574-25.191a91.253,91.253,0,0,0-37.762-25.239c-8.8-3.143-27.912-9.1-32.756,2.77l-8.586,20.963s23.36-1.9,43.383,8.586S327.009,172.178,327.009,172.178Z" transform="translate(70.607 15.182)" fill="none" stroke="#000" stroke-linecap="round" stroke-linejoin="round" stroke-width="1.143"/>
      <path id="Path_19239" data-name="Path 19239" d="M291.648,153.392s14.774-11.923,19.067-4.779S305,165.785,297.367,165.785s-11.437-2.867-11.437-2.867" transform="translate(92.132 41.128)" fill="#fff"/>
      <path id="Path_19243" data-name="Path 19243" d="M291.648,153.392s14.774-11.923,19.067-4.779S305,165.785,297.367,165.785s-11.437-2.867-11.437-2.867" transform="translate(92.132 41.128)" fill="none" stroke="#000" stroke-linecap="round" stroke-linejoin="round" stroke-width="1.143"/>
    </g>
  </g>
</svg>
