<svg xmlns="http://www.w3.org/2000/svg"  viewBox="0 0 36.149 40.236">
  <g id="champagne-glass" transform="translate(-0.001)">
    <g id="Group_16044"  transform="translate(0.858 3.815)">
      <path id="Path_18969"  d="M70.4,50.027l-7.587-1.48a38.131,38.131,0,0,0-3.866,10.591c-1.1,5.636.483,10.689,3.535,11.284S68.9,66.932,70,61.3a38.137,38.137,0,0,0,.4-11.268Zm0,0" transform="translate(-54.848 -48.547)" fill="#fff"/>
      <path id="Path_18970"  d="M247.161,50.027l7.587-1.48a38.137,38.137,0,0,1,3.866,10.591c1.1,5.636-.483,10.689-3.535,11.284s-6.419-3.491-7.519-9.127a38.142,38.142,0,0,1-.4-11.268Zm0,0" transform="translate(-228.372 -48.547)" fill="#fff"/>
      <path id="Path_18971" d="M20.927,448.711l-8.608-1.68a1.141,1.141,0,0,0-1.338.9l-.055.281a1.141,1.141,0,0,0,.9,1.338l8.608,1.679a1.141,1.141,0,0,0,1.338-.9l.055-.281a1.141,1.141,0,0,0-.9-1.338Zm0,0" transform="translate(-10.905 -415.696)" fill="#fff"/>
      <path id="Path_18972"  d="M310.738,448.711l8.608-1.68a1.141,1.141,0,0,1,1.338.9l.055.281a1.141,1.141,0,0,1-.9,1.338l-8.608,1.679a1.141,1.141,0,0,1-1.338-.9l-.055-.281A1.141,1.141,0,0,1,310.738,448.711Zm0,0" transform="translate(-286.325 -415.696)" fill="#fff"/>
    </g>
    <path id="Path_18973" d="M261.283,212.777c2.769-.54,4.329-4.749,3.773-9.734h-11.4q.053.3.112.607c1.1,5.636,4.466,9.723,7.519,9.127Zm0,0" transform="translate(-233.718 -187.087)" fill="#d31b27"/>
    <path id="Path_18974" d="M62.529,240.132c2.731.533,5.712-2.682,7.1-7.4H58.648c.085,3.911,1.557,6.948,3.881,7.4Zm0,0" transform="translate(-54.038 -214.441)" fill="#d31b27"/>
    <path id="Path_18975" d="M16.553,39.188,8.936,37.7a.789.789,0,0,0-.834.379A38.72,38.72,0,0,0,4.129,48.959a19.2,19.2,0,0,0-.361,4.062,14.409,14.409,0,0,0,.366,3.048q.1.424.228.839a6.089,6.089,0,0,0,3.187,4.078L5.9,69.853l-3.543-.691A1.952,1.952,0,0,0,.2,70.335a2.426,2.426,0,0,0-.122.445,3.5,3.5,0,0,0-.069.433,1.935,1.935,0,0,0,1.56,2.029l8.642,1.686a1.97,1.97,0,0,0,1.974-.817,1.849,1.849,0,0,0,.252-.54,3.378,3.378,0,0,0,.132-.734A1.935,1.935,0,0,0,11,70.848l-3.55-.693L9.1,61.286a5.916,5.916,0,0,0,4.251-2.321c.108-.123.212-.249.314-.377a15.079,15.079,0,0,0,2.381-4.45,19.767,19.767,0,0,0,.731-2.712,38.718,38.718,0,0,0,.408-11.574.789.789,0,0,0-.63-.665ZM10.928,72.548a.418.418,0,0,1,.049.3,1.368,1.368,0,0,1-.066.291.358.358,0,0,1-.4.239L1.868,71.692a.361.361,0,0,1-.246-.181.558.558,0,0,1-.006-.39A.528.528,0,0,1,1.75,70.8a.361.361,0,0,1,.309-.087L10.7,72.4a.356.356,0,0,1,.227.151ZM9.2,39.362l6.482,1.265a38.109,38.109,0,0,1-.456,10.5c-.072.371-.157.736-.249,1.095H5.347a18.043,18.043,0,0,1,.332-2.958,38.2,38.2,0,0,1,3.524-9.9Zm4.616,16.03a11.77,11.77,0,0,1-1.464,2.31,5.4,5.4,0,0,1-2.6,1.911,2.525,2.525,0,0,1-1.324.009,3.327,3.327,0,0,1-1.875-1.611A8.869,8.869,0,0,1,5.494,54.78c-.049-.326-.084-.654-.109-.982h9.107a15.53,15.53,0,0,1-.674,1.594Zm0,0" transform="translate(0 -34.726)"/>
    <path id="Path_18976" d="M167.734,98.57c.025,0,.049,0,.073,0a.789.789,0,0,0,.785-.717,38.4,38.4,0,0,0,.123-4.984.789.789,0,0,0-1.577.062,36.7,36.7,0,0,1-.118,4.779.789.789,0,0,0,.714.857Zm0,0" transform="translate(-153.891 -84.874)"/>
    <path id="Path_18977" d="M254.407,70.973a2.96,2.96,0,0,0-.258-.843,1.882,1.882,0,0,0-.49-.58,1.943,1.943,0,0,0-1.576-.386l-3.547.692-1.731-8.87c3.042-1.264,4.53-6.3,3.414-12.024a38.731,38.731,0,0,0-3.973-10.878.789.789,0,0,0-.834-.379L237.8,39.189a.79.79,0,0,0-.63.665,38.73,38.73,0,0,0,.408,11.574c1.116,5.722,4.39,9.831,7.684,9.859l1.731,8.87-3.547.692a1.968,1.968,0,0,0-1.516,1.467,2.484,2.484,0,0,0,.1,1.318,1.935,1.935,0,0,0,2.208,1.293l8.642-1.686a1.952,1.952,0,0,0,1.528-2.269ZM238.666,40.628l6.482-1.265a38.19,38.19,0,0,1,3.524,9.9c.04.206.076.411.109.616h-9.875a38.8,38.8,0,0,1-.24-9.251ZM252.8,71.543a.353.353,0,0,1-.227.15l-8.642,1.687a.362.362,0,0,1-.308-.087.537.537,0,0,1-.135-.324.607.607,0,0,1-.005-.366.36.36,0,0,1,.257-.205l8.642-1.687a.363.363,0,0,1,.4.239A.708.708,0,0,1,252.8,71.543Zm-7.666-11.837a3.565,3.565,0,0,1-1.859-.751,7.408,7.408,0,0,1-1.423-1.421,10.979,10.979,0,0,1-.694-1,14.53,14.53,0,0,1-1.1-2.2,17.542,17.542,0,0,1-.873-2.874h9.772a14.366,14.366,0,0,1-.3,4.308,9.37,9.37,0,0,1-.361,1.181,4.052,4.052,0,0,1-2.357,2.671A2.408,2.408,0,0,1,245.139,59.705Zm0,0" transform="translate(-218.292 -34.727)"/>
    <path id="Path_18978" d="M219.441.789a.789.789,0,1,0-1.578,0V3.353a.789.789,0,1,0,1.578,0Zm0,0" transform="translate(-200.741 0)"/>
    <path id="Path_18979" d="M174.443,5.168a.789.789,0,1,0,1.349-.819l-.973-1.6a.789.789,0,0,0-1.349.819Zm0,0" transform="translate(-159.732 -2.182)"/>
    <path id="Path_18980" d="M252.366,5.432a.788.788,0,0,0,1.084-.265l.972-1.6a.789.789,0,1,0-1.349-.819l-.972,1.6A.789.789,0,0,0,252.366,5.432Zm0,0" transform="translate(-232.183 -2.181)"/>
    <path id="Path_18981"  d="M334.176,112.613q.45,1.234.809,2.5c.094.333.146.684.467.878a.789.789,0,0,0,1.169-.88c-.1-.409-.226-.815-.351-1.218s-.265-.833-.408-1.246c-.071-.2-.135-.415-.22-.614a.787.787,0,0,0-.276-.338.789.789,0,0,0-1.19.92Zm0,0" transform="translate(-307.87 -102.788)"/>
    <path id="Path_18982"  d="M162.913,194.749a.792.792,0,1,1-.792-.792A.792.792,0,0,1,162.913,194.749Zm0,0" transform="translate(-148.649 -178.715)"/>
    <path id="Path_18983"  d="M320.534,75.277a.792.792,0,1,1-.792-.792A.793.793,0,0,1,320.534,75.277Zm0,0" transform="translate(-293.883 -68.631)"/>
  </g>
</svg>
