<svg  viewBox="0 0 46.426 40.236">
  <g id="dinner" transform="translate(-16 -39.999)">
    <circle id="Ellipse_625" data-name="Ellipse 625" cx="17.796" cy="17.796" r="17.796" transform="translate(21.416 43.094)" fill="#fff"/>
    <path id="Path_18991" data-name="Path 18991" d="M11.606,0A11.606,11.606,0,1,1,0,11.606,11.606,11.606,0,0,1,11.606,0Z" transform="translate(27.606 49.284)" fill="#fff"/>
    <path id="Path_18984" data-name="Path 18984" d="M442.321,289.023A2.321,2.321,0,0,1,440,286.7V272h4.643v14.7a2.321,2.321,0,0,1-2.321,2.321Z" transform="translate(-382.991 -209.562)" fill="#d31b27"/>
    <path id="Path_18985" data-name="Path 18985" d="M415.738,69.665H408V54.19A6.19,6.19,0,0,1,414.19,48h1.547Z" transform="translate(-354.086 -7.227)" fill="#e9eef2"/>
    <path id="Path_18986" data-name="Path 18986" d="M56,176h3.1v23.213H56Z" transform="translate(-36.131 -122.847)" fill="#e9eef2"/>
    <path id="Path_18987" data-name="Path 18987" d="M48,272h4.643v14.7a2.321,2.321,0,1,1-4.643,0Z" transform="translate(-28.905 -209.562)" fill="#d31b27"/>
    <path id="Path_18988" data-name="Path 18988" d="M26.83,50.108l-.073-1.142-.029-.455-.5-7.787a.774.774,0,0,0-1.546.049c0,.017,0,.033,0,.049l.491,7.717a6.519,6.519,0,0,1-2.986.722V40.774a.774.774,0,1,0-1.548,0v8.489a6.571,6.571,0,0,1-2.985-.724l.49-7.715c0-.016,0-.032,0-.049a.774.774,0,0,0-1.546-.049l-.5,7.787-.028.451-.074,1.15a3.6,3.6,0,0,0,3.6,3.816h3.625a3.6,3.6,0,0,0,3.6-3.819Z" transform="translate(-0.005 -0.001)" fill="#e9eef2"/>
    <path id="Path_18989" data-name="Path 18989" d="M140.38,128a12.38,12.38,0,1,0,12.38,12.38A12.38,12.38,0,0,0,140.38,128Zm0,23.213a10.833,10.833,0,1,1,10.833-10.833A10.833,10.833,0,0,1,140.38,151.213Z" transform="translate(-101.167 -79.49)"/>
    <path id="Path_18990" data-name="Path 18990" d="M61.652,40H60.1a6.972,6.972,0,0,0-6.964,6.964v1.644a18.567,18.567,0,0,0-26.5-1.383l-.414-6.5a.774.774,0,1,0-1.544.1l.491,7.717a6.532,6.532,0,0,1-2.985.722V40.773a.774.774,0,1,0-1.548,0v8.489a6.552,6.552,0,0,1-2.985-.725l.491-7.715a.774.774,0,1,0-1.544-.1l-.6,9.388a3.6,3.6,0,0,0,3.089,3.779v7.774a.774.774,0,0,0-.774.774v14.7a3.1,3.1,0,1,0,6.19,0V72.233a18.578,18.578,0,0,0,31.724-3.909v8.815a3.1,3.1,0,1,0,6.19,0V40.773A.774.774,0,0,0,61.652,40Zm-6.964,6.964A5.422,5.422,0,0,1,60.1,41.546h.774V61.664h-6.19ZM17.551,50.211a10.332,10.332,0,0,0,3.865.621,10.821,10.821,0,0,0,3.865-.617,2.055,2.055,0,0,1-2.053,2.164H19.6a2.056,2.056,0,0,1-2.053-2.168Zm3.092,3.716H22.19v7.738H20.642Zm2.321,23.213a1.548,1.548,0,1,1-3.1,0V63.212h3.1ZM50.75,73.408a17.023,17.023,0,0,1-26.238-3.935V62.438a.774.774,0,0,0-.774-.774V53.891a3.6,3.6,0,0,0,3.088-3.783l-.053-.836A17.02,17.02,0,0,1,53.14,51.105V62.438a.774.774,0,0,0,.774.774h2.164a16.966,16.966,0,0,1-5.328,10.2Zm8.581,5.279a1.549,1.549,0,0,1-1.548-1.548V63.212h3.1V77.139A1.549,1.549,0,0,1,59.331,78.687Z"/>
  </g>
</svg>
