<svg id="Group_16357" data-name="Group 16357" xmlns="http://www.w3.org/2000/svg" width="24" height="24" viewBox="0 0 24 24">
  <path id="Path_19495" data-name="Path 19495" d="M0,0H24V24H0Z" fill="none"/>
  <path id="Path_19496" data-name="Path 19496" d="M9,7c-3,0-4,3-4,5.5,0,3,2,7.5,4,7.5,1.088-.046,1.679-.5,3-.5s1.5.5,3,.5,4-3,4-5a3.026,3.026,0,0,1-2.5-3c-.019-2.17,2.416-2.954,2.5-3a5.244,5.244,0,0,0-3.5-2c-1.433-.111-2.83,1-3.5,1S10.1,7,9,7Z" fill="none" stroke="#333" stroke-linecap="round" stroke-linejoin="round" stroke-width="1.5"/>
  <path id="Path_19497" data-name="Path 19497" d="M12,4a2,2,0,0,0,2-2,2,2,0,0,0-2,2" fill="none" stroke="#333" stroke-linecap="round" stroke-linejoin="round" stroke-width="1.5"/>
</svg>
