<svg id="Group_16354" data-name="Group 16354" xmlns="http://www.w3.org/2000/svg" width="24" height="24" viewBox="0 0 24 24">
  <path id="Path_19491" data-name="Path 19491" d="M0,0H24V24H0Z" fill="none"/>
  <path id="Path_19492" data-name="Path 19492" d="M10,13h2.5a5.377,5.377,0,0,0,5-5,4.673,4.673,0,0,0-5-5H7A1.075,1.075,0,0,0,6,4L4,18a1.075,1.075,0,0,0,1,1H7.8L9,14C9.1,13.4,9.4,13,10,13Zm7.5-5.8A5.325,5.325,0,0,1,20,12c0,2.5-2.5,4.5-5,4.5H12.4l-.6,3.6a1,1,0,0,1-1,.8H8.1a.5.5,0,0,1-.5-.6l.2-1.4" fill="none" stroke="#333" stroke-linecap="round" stroke-linejoin="round" stroke-width="1.5"/>
</svg>
