<svg id="Group_16151" data-name="Group 16151" xmlns="http://www.w3.org/2000/svg" width="24" height="24" viewBox="0 0 24 24">
  <path id="Path_19014" data-name="Path 19014" d="M0,0H24V24H0Z" fill="none"/>
  <path id="Path_19015" data-name="Path 19015" d="M11.8,21H5a2,2,0,0,1-2-2V7A2,2,0,0,1,5,5H17a2,2,0,0,1,2,2v4" transform="translate(0 0)" fill="none" stroke="#7a7a7a" stroke-linecap="round" stroke-linejoin="round" stroke-width="1"/>
  <circle id="Ellipse_635" data-name="Ellipse 635" cx="4" cy="4" r="4" transform="translate(14 14)" fill="none" stroke="#7a7a7a" stroke-linecap="round" stroke-linejoin="round" stroke-width="1"/>
  <path id="Path_19016" data-name="Path 19016" d="M15,3V7" transform="translate(0 0)" fill="none" stroke="#7a7a7a" stroke-linecap="round" stroke-linejoin="round" stroke-width="1"/>
  <path id="Path_19017" data-name="Path 19017" d="M7,3V7" transform="translate(0 0)" fill="none" stroke="#7a7a7a" stroke-linecap="round" stroke-linejoin="round" stroke-width="1"/>
  <path id="Path_19018" data-name="Path 19018" d="M3,11H19" transform="translate(0 0)" fill="none" stroke="#7a7a7a" stroke-linecap="round" stroke-linejoin="round" stroke-width="1"/>
  <path id="Path_19019" data-name="Path 19019" d="M18,16.5V18l1,1" transform="translate(0 0)" fill="none" stroke="#7a7a7a" stroke-linecap="round" stroke-linejoin="round" stroke-width="1"/>
</svg>
