<svg  viewBox="0 0 381.189 333.438">
  <g id="Group_16017" data-name="Group 16017" transform="translate(-870.496 -1813.895)">
    <g id="Object" transform="translate(889.672 1879.36)">
      <g id="Group_15653" data-name="Group 15653" transform="translate(53.196 0)">
        <g id="Group_15647" data-name="Group 15647" transform="translate(0 121.873)">
          <path id="Path_16774" data-name="Path 16774" d="M666.443,1094.58l-1.469,23.832s-53.376-62.032-60.95-66.36-25.967-3.246-27.77,0-2.885,20.918,0,24.163,17.672,3.606,17.672,3.606,55.3,91.625,80.064,89.081,39.551-51.573,39.551-51.573l-18.016-20.8Z" transform="translate(-562.009 -1032.943)" fill="#fff" stroke="#000" stroke-width="1"/>
          <path id="Path_16776" data-name="Path 16776" d="M559.651,987.722h0a2.277,2.277,0,0,1-1.5-1.393,1.5,1.5,0,0,0-1.021-.952,1.542,1.542,0,0,0-1.85,1.067l-28.9,94.057-4.483-1.377,28.88-93.992a6.275,6.275,0,0,1,7.6-4.272,6.185,6.185,0,0,1,4.156,3.812A2.344,2.344,0,0,1,559.651,987.722Z" transform="translate(-521.901 -980.64)"/>
          <path id="Path_16810" data-name="Path 16810" d="M200.175,159.909l-4.142-.979a3.017,3.017,0,0,0-3.24,1.317l-2.375,3.731a2.572,2.572,0,0,1-3.293.933h0a2.572,2.572,0,0,1-1.363-2.969l3.045-11.558" transform="translate(-163.728 -134.129)" fill="none" stroke="#000" stroke-linecap="round" stroke-linejoin="round" stroke-width="1"/>
        </g>
        <g id="Group_15648" data-name="Group 15648" transform="translate(101.264 0)">
          <path id="Path_16778" data-name="Path 16778" d="M980.688,479.342c-7.495,13.971-6.659,12.724-10.746,26.549s-22.44,32.859-20.837,53.7c0,0,39.431,3.847,71.649-8.335s46.644-24.845,46.644-24.845-24.508-14.322-27.073-21.374,6.716-25.27-7.069-34.567-44.24,1.122-48.728,1.282S984.815,471.648,980.688,479.342Z" transform="translate(-949.005 -466.611)"/>
          <path id="Path_16779" data-name="Path 16779" d="M1166.317,704.955l5.61,27.81-10.9,4.167,20.2,48.728,31.1-59.948-15.949-47.02Z" transform="translate(-1110.758 -628.409)" fill="#fff" stroke="#000" stroke-width="1"/>
          <path id="Path_16780" data-name="Path 16780" d="M1299.873,681.776l4.349,2.59-1.925-5.674Z" transform="translate(-1216.684 -628.409)"/>
          <path id="Path_16782" data-name="Path 16782" d="M1061.647,521.968s.018,57.115,28.852,52.9c19.716-2.885,30.054-26.263,30.054-26.263l-16.83-39.375S1063.33,502.734,1061.647,521.968Z" transform="translate(-1034.94 -498.318)" fill="#fff" stroke="#000" stroke-width="1"/>
          <path id="Path_16783" data-name="Path 16783" d="M1124.761,537.157s-2.885-6.054-3.126-10.622-2.5-14.686-4.839-15.122c-5.17-.962-26.328,3.57-31.5-7.806s39.466-1.208,39.466-1.208l11.18,33.458Z" transform="translate(-1050.328 -492.546)"/>
          <path id="Path_16805" data-name="Path 16805" d="M1.6,0A1.7,1.7,0,0,1,2.926,1.972,1.7,1.7,0,0,1,1.331,3.731,1.7,1.7,0,0,1,.006,1.761,1.7,1.7,0,0,1,1.6,0Z" transform="matrix(0.94, -0.342, 0.342, 0.94, 50.977, 40.588)" fill-rule="evenodd"/>
          <path id="Path_16806" data-name="Path 16806" d="M1.6,0A1.7,1.7,0,0,1,2.926,1.972,1.7,1.7,0,0,1,1.331,3.731,1.7,1.7,0,0,1,.006,1.761,1.7,1.7,0,0,1,1.6,0Z" transform="matrix(0.94, -0.342, 0.342, 0.94, 33.827, 42.686)" fill-rule="evenodd"/>
          <path id="Path_16807" data-name="Path 16807" d="M6.142.13C4.989.69,3.149,1.582.739,2.739A1.285,1.285,0,0,0,.393,4.824c.776.724,2.122,1.276,4.362.421,2.763-1.055,3.287-2.77,3.22-4.06A1.273,1.273,0,0,0,6.142.13Z" transform="matrix(0.94, -0.342, 0.342, 0.94, 48.756, 58.661)"/>
          <path id="Path_16808" data-name="Path 16808" d="M1.542,26.211a.308.308,0,0,0,.087-.013.3.3,0,0,0,.2-.374C.85,22.6,3.18,16.692,4.881,12.381a36.876,36.876,0,0,0,1.45-4.04C7.712,2.455.466.038.392.015A.3.3,0,0,0,.207.586,11.729,11.729,0,0,1,3.494,2.4,5.469,5.469,0,0,1,5.747,8.2a36.665,36.665,0,0,1-1.423,3.957C2.589,16.554.215,22.569,1.255,26A.3.3,0,0,0,1.542,26.211Z" transform="matrix(0.94, -0.342, 0.342, 0.94, 33.41, 32.519)"/>
        </g>
        <g id="Group_15651" data-name="Group 15651" transform="translate(101.282 84.689)">
          <g id="Group_15649" data-name="Group 15649">
            <path id="Path_16791" data-name="Path 16791" d="M1024.981,878.335l-6.091,38.92-20.517-38.916s-21.4,4.694-30.775,12.388-18.513,63.955-18.513,63.955l104.108,6.973,32.218-11.781,45.2-11.3s-10.82-56.089-31.256-65.192-49.542-7.093-49.542-7.093Z" transform="translate(-949.084 -856.073)" fill="#e23744" stroke="#000" stroke-width="1"/>
            <path id="Path_16792" data-name="Path 16792" d="M1243.507,946.378l13.742-42.1-9.133,2.673Z" transform="translate(-1173.701 -885.196)"/>
            <path id="Path_16793" data-name="Path 16793" d="M1376.19,869.008l2.879-2.908-5.135.188Z" transform="translate(-1273.205 -856.073)" fill="#333"/>
            <path id="Path_16794" data-name="Path 16794" d="M1161.484,861.19c-6.156,2.149-11.445,12.086-11.285,15.933s13.464-5.129,13.464-5.129Z" transform="translate(-1102.514 -852.327)" fill="#e23744" stroke="#000" stroke-width="1"/>
            <path id="Path_16795" data-name="Path 16795" d="M1288.456,824.08c-3.455-2.923-25.886,18.593-25.526,21.479s27.61-7.213,28.571-8.816S1290.54,825.843,1288.456,824.08Z" transform="translate(-1188.516 -823.808)" fill="#e23744" stroke="#000" stroke-width="1"/>
          </g>
          <g id="Group_15650" data-name="Group 15650" transform="translate(31.16 9.117)">
            <path id="Path_16796" data-name="Path 16796" d="M1080.512,880.966c3.4,14.54,11.665,63.8,1.07,72.946,0,0,3.35,50.015,3.35,81.031h117.932l-17.191-88c-8.175-12.262-15.9-69.384-15.882-83.26.014-1.678-7.918-1.931-8.16-.45s3.686,43.4.159,56.22-56.422,21.158-62.192,13.785-12.651-51.94-13.378-54.341S1080.321,880.149,1080.512,880.966Z" transform="translate(-1080.507 -862.261)" fill="#fff" stroke="#000" stroke-width="1"/>
            <path id="Path_16797" data-name="Path 16797" d="M1188.448,1313.073l46.489-4.1s-3.649,23.266-22.99,24.284S1188.448,1313.073,1188.448,1313.073Z" transform="translate(-1162.856 -1203.061)" fill="#e23744"/>
            <path id="Path_16798" data-name="Path 16798" d="M1145.816,1258.769l67.074-8.695,6.732,57.743-70.5,6.279Z" transform="translate(-1130.332 -1158.126)" fill="none" stroke="#000" stroke-linecap="round" stroke-linejoin="round" stroke-width="2"/>
          </g>
        </g>
        <g id="Group_15652" data-name="Group 15652" transform="translate(136.879 168.441)">
          <path id="Path_16799" data-name="Path 16799" d="M1199.951,1187.1l6.694,34.269s-70.723,5.042-74.834,4.32-16.252-8.58-17.935-7.213-3.207,5.41-3.207,5.41-9.645,2.508-11.1,6.852,1.8,27.77,6.852,29.213,22.36-5.41,22.36-5.41,106.873,14.065,116.37-7.213-5.007-70.277-5.007-70.277Z" transform="translate(-1099.222 -1177.052)" fill="#fff" stroke="#000" stroke-width="1"/>
        </g>
      </g>
      <g id="Group_15655" data-name="Group 15655" transform="translate(0 213.112)">
        <g id="Group_15654" data-name="Group 15654" transform="translate(0 0)">
          <path id="Path_16801" data-name="Path 16801" d="M380.155,1418.839H321.307a20.185,20.185,0,0,1-20.076-18.083l-3.7-35.293H403.927l-3.7,35.293A20.185,20.185,0,0,1,380.155,1418.839Z" transform="translate(-297.535 -1365.463)" fill="#e23744"/>
          <path id="Path_16802" data-name="Path 16802" d="M495.693,1403.566l-.79,7.018a3.864,3.864,0,0,1-3.839,3.431h0a3.863,3.863,0,0,1-3.863-3.863V1404.4H472.773v5.753a3.863,3.863,0,0,1-3.864,3.863h0a3.864,3.864,0,0,1-3.84-3.431l-.79-7.018a3.864,3.864,0,0,1,3.839-4.3h23.734A3.863,3.863,0,0,1,495.693,1403.566Z" transform="translate(-424.727 -1391.255)" fill="#fff" stroke="#ff6338" stroke-width="2"/>
        </g>
      </g>
    </g>
    <path id="Path_16811" data-name="Path 16811" d="M1065.6,2967.483H688.592c-1.155,0-2.092-.332-2.092-.742s.936-.742,2.092-.742H1065.6c1.155,0,2.092.332,2.092.742S1066.752,2967.483,1065.6,2967.483Z" transform="translate(183.996 -820.15)"/>
    <g id="Group_15896" data-name="Group 15896" transform="translate(113.876 1472.42) rotate(12)">
      <g id="Group_15894" data-name="Group 15894" transform="translate(1001.793 136.839) rotate(7)">
        <path id="Path_18882" data-name="Path 18882" d="M128.077,36.578c0,27.276-35.986,37.39-50.208,14.089a38.447,38.447,0,0,1-26.692,1.995C38.232,77.824,0,68.634,0,40.294A27.084,27.084,0,0,1,32.773,13.815c.207.044.421.089.628.14a28.818,28.818,0,0,1,1.751-2.342C46.44-1.98,69.535-3.79,83.712,6.974A29.534,29.534,0,0,1,89.1,12.242c.3-.148.6-.288.894-.421A27.111,27.111,0,0,1,128.077,36.578Z" transform="translate(0 0)" fill="#fff" stroke="#000" stroke-miterlimit="10" stroke-width="1"/>
        <path id="Path_18883" data-name="Path 18883" d="M64.222,32.525c-19.548-12.2-42.088-12.2-61.637,0-1.215.758-2.544-.595-2.544-2.6,0-18.606-.371-19.09,1.1-20.063,31.4-20.729,65.621-3.256,65.621,2.587C66.767,27.315,67.587,34.625,64.222,32.525Z" transform="translate(30.612 46.994)" fill="#fff" stroke="#000" stroke-miterlimit="10" stroke-width="1"/>
        <path id="Path_18884" data-name="Path 18884" d="M65.1,0c0,11.681-14.573,21.151-32.55,21.151S0,11.681,0,0" transform="translate(45.147 40.291)" fill="#fff" stroke="#000" stroke-linecap="round" stroke-linejoin="round" stroke-width="1"/>
        <path id="Path_18885" data-name="Path 18885" d="M9.135,19.3S.47,14.879,0,0" transform="translate(19.392 40.522) rotate(-7)" fill="none" stroke="#000" stroke-linecap="round" stroke-width="1"/>
      </g>
      <path id="Path_18886" data-name="Path 18886" d="M-21096.27,8048.139s-1.635,6.407,1.914,10.39" transform="translate(22129.555 -7893.347)" fill="none" stroke="#000" stroke-width="1"/>
    </g>
    <circle id="Ellipse_624" data-name="Ellipse 624" cx="8.756" cy="8.756" r="8.756" transform="translate(1118.66 1914.902)" fill="#fff"/>
    <path id="Path_18887" data-name="Path 18887" d="M4.88,3.269A.156.156,0,0,1,4.8,3.244L.077.3A.166.166,0,0,1,.023.078.158.158,0,0,1,.243.024l4.72,2.942a.166.166,0,0,1,.053.225A.16.16,0,0,1,4.88,3.269Z" transform="matrix(-0.259, 0.966, -0.966, -0.259, 1129.646, 1921.646)" stroke="#000" stroke-width="1"/>
  </g>
</svg>
