<svg  viewBox="0 0 401.057 301.956">
  <g id="Group_15633" data-name="Group 15633" transform="translate(-165.714 -51.151)">
    <g id="Group_15604" data-name="Group 15604" transform="translate(166.271 51.731)">
      <g id="Group_15597" data-name="Group 15597" transform="translate(105.073 256.021)">
        <path id="Path_16690" data-name="Path 16690" d="M478.173,813.419l-5.459,29.843h97.66s.976-17.8-2.584-33.937l-44.821-10.918Z" transform="translate(-472.714 -798.408)" fill="none" stroke="#000" stroke-width="1"/>
        <line id="Line_540" data-name="Line 540" y1="12.518" x2="1.259" transform="translate(44.315 32.337)" fill="none" stroke="#fff" stroke-miterlimit="10" stroke-width="1"/>
      </g>
      <g id="Group_15598" data-name="Group 15598" transform="translate(123.455 143.305)">
        <path id="Path_16692" data-name="Path 16692" d="M546.511,473.942l-13.464,12.144-6.722,110.62s43.348,3.477,55.17-5.1l8.577-116.6-10.2-5.331Z" transform="translate(-526.324 -469.676)" fill="#fff" stroke="#000" stroke-width="1"/>
        <path id="Path_16693" data-name="Path 16693" d="M576.27,544.887,570.9,555.956l-1.286-9.272Z" transform="translate(-554.77 -519.099)" fill="#333"/>
      </g>
      <g id="Group_15599" data-name="Group 15599" transform="translate(1.069 0)">
        <line id="Line_541" data-name="Line 541" x1="2.117" y2="11.828" transform="translate(8.948 30.775)" fill="none" stroke="#000" stroke-linecap="round" stroke-linejoin="round" stroke-width="5"/>
        <path id="Path_16694" data-name="Path 16694" d="M180.454,82.506h0A13.43,13.43,0,0,1,169.6,66.92l2.719-15.189,26.44,4.733-2.719,15.188A13.43,13.43,0,0,1,180.454,82.506Z" transform="translate(-169.388 -51.731)" fill="#fff" stroke="#000" stroke-width="1"/>
        <path id="Union_9" data-name="Union 9" d="M12693.639-8693.782a11.784,11.784,0,0,1-7.389-4.486l-.017-.021-.041-.056-.035-.047c-.015-.021-.031-.042-.046-.063l-.053-.072-.019-.026c-.05-.07-.1-.14-.146-.212l-.007-.009a11.281,11.281,0,0,1-1.878-7.651.007.007,0,0,0,0,0c.006-.043.01-.085.016-.128a.177.177,0,0,0,0-.022l.015-.108c0-.027.009-.055.012-.082,0,0,0-.008,0-.012.02-.126.04-.251.063-.377l.087-.471.48-2.63a2.207,2.207,0,0,1,.787-.131l.15,0a6.841,6.841,0,0,1,3.236,1.374,5.971,5.971,0,0,0,3.28,1.243c1.735-.059,3.163-1.552,4.894-1.633h.146c1.339,0,2.5.854,3.757,1.336q.24.092.486.163h0a4.984,4.984,0,0,0,5.556-2.306c.556-1.029.872-2.406,2.01-2.762a1.154,1.154,0,0,1,.142-.035l-1.813,9.914a11.718,11.718,0,0,1-11.581,9.5A12.154,12.154,0,0,1,12693.639-8693.782Z" transform="translate(-12682.17 8722.985)" stroke="rgba(0,0,0,0)" stroke-miterlimit="10" stroke-width="1"/>
      </g>
      <g id="Group_15600" data-name="Group 15600" transform="translate(0 32.963)">
        <path id="Path_16697" data-name="Path 16697" d="M264.112,237.839,241.858,219.15s-46.941-62.936-53.895-66.761-13.908-5.911-17.038-3.477-5.216,16.69-4.52,18.428,11.822,3.825,13.213,5.216,34.423,64.466,39.639,69.786,22.075,21.809,22.075,21.809Z" transform="translate(-166.271 -147.867)" fill="#fff" stroke="#000" stroke-width="1"/>
        <path id="Path_16698" data-name="Path 16698" d="M196.8,157.694l-3.179-.751a2.315,2.315,0,0,0-2.486,1.01l-1.822,2.863a1.974,1.974,0,0,1-2.527.716h0a1.974,1.974,0,0,1-1.046-2.278l2.337-8.87" transform="translate(-179.023 -149.521)" fill="none" stroke="#000" stroke-linecap="round" stroke-linejoin="round" stroke-width="1"/>
      </g>
      <g id="Group_15601" data-name="Group 15601" transform="translate(126.378 65.518)">
        <path id="Union_8" data-name="Union 8" d="M12583.361-8698.318c-7.143,0-7.909-18.651-7.947-19.724q-.584.021-1.172.021c-27.39,0-10.431-52.623-10.431-52.623,4.028-17.746,38.942,0,38.942,0l5.332,37.322,1.161,16.459s-9.962,18.544-25.873,18.544Z" transform="translate(-12558.622 8794.649)" fill="#fff" stroke="#000" stroke-width="1"/>
        <path id="Path_16702" data-name="Path 16702" d="M577.558,299.794s-.869-8.345,0-13.213c0,0-9.736-1.043-10.605-9.562a17.92,17.92,0,0,1-9.214-.7,9.946,9.946,0,0,1-5.612-5.446s-12.3.752-15.946-10.548,10.6-19.645,16.69-17.038,7.206,5.216,7.206,5.216,11.57-.7,17.482,3.651,5.81,12.691,5.81,12.691,3.23-1.565,4.968-.522,2.26,5.216,2.26,5.216,8,.348,8.519,13.561-13.591,31.3-13.591,31.3l-.722-10.26Z" transform="translate(-535.337 -242.811)"/>
        <path id="Path_16709" data-name="Path 16709" d="M657.986,395.047s4.346-9.91,9.736-6.607-2.492,10.953-2.492,10.953S658.681,402.349,657.986,395.047Z" transform="translate(-615.765 -338.064)" fill="#fff"/>
        <path id="Path_16710" data-name="Path 16710" d="M670.915,403.3l3.55-3.691" transform="translate(-624.261 -345.879)" fill="none" stroke="#000" stroke-linecap="round" stroke-linejoin="round" stroke-width="1"/>
        <g id="Group_15633-2" data-name="Group 15633" transform="matrix(0.914, 0.407, -0.407, 0.914, 8.758, 30.449)">
          <g id="Group_15618" data-name="Group 15618" transform="translate(10.506 7.126)">
            <g id="Group_15617" data-name="Group 15617">
              <path id="Path_16756" data-name="Path 16756" d="M1060,899.687a9.883,9.883,0,0,0,2.228-.3.24.24,0,1,0-.114-.467c-1.81.439-3.24.364-3.824-.2a1.48,1.48,0,0,1-.287-1.435c.485-2.367-.295-9.216-.328-9.506a.241.241,0,0,0-.478.055c.008.07.8,7.063.335,9.356a1.923,1.923,0,0,0,.425,1.878A2.923,2.923,0,0,0,1060,899.687Z" transform="translate(-1057.197 -887.567)" fill="#292526"/>
            </g>
          </g>
          <g id="Group_15619" data-name="Group 15619" transform="translate(20.297 6.233)">
            <path id="Path_16757" data-name="Path 16757" d="M1044.54,887.383a1.9,1.9,0,1,1-2.242-1.531,1.917,1.917,0,0,1,2.242,1.531Z" transform="translate(-1040.766 -885.817)" fill="#292526"/>
          </g>
          <g id="Group_15620" data-name="Group 15620" transform="translate(2.996 10.154)">
            <path id="Path_16758" data-name="Path 16758" d="M1078.437,895.065a1.9,1.9,0,1,1-2.243-1.531,1.916,1.916,0,0,1,2.243,1.531Z" transform="translate(-1074.663 -893.499)" fill="#292526"/>
          </g>
          <g id="Group_15622" data-name="Group 15622" transform="translate(17.626 19.081)">
            <g id="Group_15621" data-name="Group 15621">
              <path id="Path_16759" data-name="Path 16759" d="M1038.529,917.544c6.458,0,7.493-6.213,7.5-6.276a.24.24,0,0,0-.475-.073,6.969,6.969,0,0,1-7.028,5.869.24.24,0,1,0,0,.48Z" transform="translate(-1038.288 -910.991)" fill="#292526"/>
            </g>
          </g>
        </g>
      </g>
      <g id="Group_15602" data-name="Group 15602" transform="translate(167.035 137.107)">
        <path id="Path_16711" data-name="Path 16711" d="M675.753,470.716s17.269.571,26.6,5.207,24.166,19.535,24.166,19.535L701.136,515.33s-7.555,72.649-6.093,78.663c0,0-23.926,9.655-36.212,10.582,0,0,2.782-34.771,2.55-52.62s-3.017-50.6-.466-59.145S675.753,470.716,675.753,470.716Z" transform="translate(-656.977 -464.161)" fill="#e23744" stroke="#000" stroke-width="1"/>
        <path id="Path_16712" data-name="Path 16712" d="M662.954,451.6l9.245,6.555-5.591,21.607-13.186.7Z" transform="translate(-653.422 -451.598)" fill="#e23744" stroke="#000" stroke-width="1"/>
      </g>
      <g id="Group_15603" data-name="Group 15603" transform="translate(70.371 122.935)">
        <path id="Path_16713" data-name="Path 16713" d="M435.4,436.085c-7.563-1.565-36.423-25.817-36.423-25.817L371.507,442l39.117,31.816s-6.954,84.32-9.91,93.708l36.51,1.825s4.608-88.841,3.521-108.79l-1.087-19.949Z" transform="translate(-371.507 -410.268)" fill="#e23744" stroke="#000" stroke-width="1"/>
        <path id="Path_16714" data-name="Path 16714" d="M566.946,472.718l-9.1,4.4s1.928,25.383,2.137,26.252,8.556-5.911,8.556-5.911Z" transform="translate(-493.953 -451.305)" fill="#e23744" stroke="#000" stroke-width="1"/>
      </g>
    </g>
    <g id="Group_15609" data-name="Group 15609" transform="translate(346.591 140.025)">
      <path id="Path_16715" data-name="Path 16715" d="M1024.886,597.729l9.545,22.652,45.434-26.6,6.148-12.72a2.1,2.1,0,0,1,1.894-1.188h0a2.1,2.1,0,0,1,2.087,2.37l-.953,7.485a1.075,1.075,0,0,0,1.79.932l11.221-10.2a2.213,2.213,0,0,1,3.34.426h0a2.213,2.213,0,0,1-.153,2.63l-6.831,8.181,9.681-6a2,2,0,0,1,2.859.852h0a2,2,0,0,1-.583,2.418l-9.175,7.136,7.756-.881a2.4,2.4,0,0,1,2.675,2.388h0a2.4,2.4,0,0,1-1.9,2.35l-9,1.938s-7.418,7.6-13.677,10.058c0,0-40.8,42.562-59.227,39.78s-31.642-46.3-31.642-46.3Z" transform="translate(-891.942 -487.077)" fill="#fff" stroke="#000" stroke-width="1"/>
      <path id="Path_16716" data-name="Path 16716" d="M816.954,311.8s-28.4,5.564-32.194,13.213-6.228,25.78-10.749,31.058-9.214,12.111-9.562,22.168S775.4,398.729,775.4,398.729l66.76-5.336S852.247,380.3,851.2,368.3s-7.7-16.646-7.824-25.035c-.174-12.17-2.814-27.468-14.43-32.685C820.868,306.955,816.954,311.8,816.954,311.8Z" transform="translate(-739.661 -309.236)"/>
      <g id="Group_15605" data-name="Group 15605" transform="translate(24.781 174.856)">
        <path id="Path_16717" data-name="Path 16717" d="M774.359,824.239c-8,11.3-9.917,32.685-9.917,32.685H862.33L852.073,819.2Z" transform="translate(-764.442 -819.197)" fill="none" stroke="#000" stroke-width="1"/>
      </g>
      <g id="Group_15606" data-name="Group 15606" transform="translate(1.492 69.855)">
        <path id="Path_16719" data-name="Path 16719" d="M806.646,586.5c-1.814,9.042.792,31.47.792,31.47l-77.71,5.04s-.521-40.508-2.609-46.594l-30.6-10.256s11.887-36.594,19.355-43.548,26.022-8.957,26.022-8.957l44.331-.346s10.736-1.423,18.145,1.55S830.909,552.6,830.909,552.6l-22.339,8.867S808.46,577.461,806.646,586.5Z" transform="translate(-696.52 -512.967)" fill="#e23744" stroke="#000" stroke-width="1"/>
        <line id="Line_544" data-name="Line 544" y1="20.573" x2="6.78" transform="translate(30.599 42.876)" fill="none" stroke="#000" stroke-linecap="round" stroke-linejoin="round" stroke-width="1"/>
        <path id="Path_16720" data-name="Path 16720" d="M907.991,575.307a2.383,2.383,0,1,1-2.383-2.383A2.383,2.383,0,0,1,907.991,575.307Z" transform="translate(-832.35 -552.366)"/>
        <circle id="Ellipse_623" data-name="Ellipse 623" cx="2.383" cy="2.383" r="2.383" transform="translate(73.258 37.982)"/>
        <path id="Path_16721" data-name="Path 16721" d="M1013.481,614.314c-.724-4.694-5.129-20.92-5.129-20.92" transform="translate(-901.431 -565.817)" fill="none" stroke="#000" stroke-linecap="round" stroke-linejoin="round" stroke-width="1"/>
      </g>
      <g id="Group_15607" data-name="Group 15607" transform="translate(46.868 5.29)">
        <path id="Union_7" data-name="Union 7" d="M12457.812-8742.616s5.13,2.257,7.476-1.915c2.333-4.146,1.92-14.646,1.914-14.777-.21-.123-11.612-6.846-8.17-12.343,2.777-4.428,8.026,1.232,8.17,1.389v-28.221s25.036-16.228,33.845-2.781c0,0,25.213,50.025-1.393,53.512-.446.06-.887.109-1.326.15v3.408l3.819,1.229s-4.687,13.147-18.255,13.908c-.642.037-1.271.053-1.887.053A27.566,27.566,0,0,1,12457.812-8742.616Z" transform="translate(-12457.815 8807.869)" fill="#fff" stroke="#000" stroke-width="1"/>
        <path id="Path_16726" data-name="Path 16726" d="M843.578,362.275S869.571,345.3,871.7,326.752c0,0,0-2.912-9-1.856C839,327.678,839,338.109,839,338.109l.081,20.129Z" transform="translate(-834.19 -324.665)"/>
        <path id="Path_16734" data-name="Path 16734" d="M847.61,441.927l-2.941-2.564" transform="translate(-839.188 -399.575)" fill="none" stroke="#000" stroke-linecap="round" stroke-linejoin="round" stroke-width="1"/>
        <path id="Path_16739" data-name="Path 16739" d="M2223.177,1314.571a1.342,1.342,0,1,0,1.112,1.226A1.187,1.187,0,0,0,2223.177,1314.571Z" transform="translate(-2189.335 -1284.59)" fill-rule="evenodd"/>
        <path id="Path_16740" data-name="Path 16740" d="M2335.376,1288.612a1.342,1.342,0,1,0,1.112,1.225A1.188,1.188,0,0,0,2335.376,1288.612Z" transform="translate(-2289.8 -1261.346)" fill-rule="evenodd"/>
        <path id="Path_16741" data-name="Path 16741" d="M2293.528,1242.25a.215.215,0,0,1-.061-.009.21.21,0,0,1-.139-.261c.682-2.25-.942-6.365-2.127-9.37a25.612,25.612,0,0,1-1.01-2.816c-.963-4.1,4.088-5.787,4.139-5.8a.209.209,0,0,1,.129.4,8.173,8.173,0,0,0-2.291,1.264,3.812,3.812,0,0,0-1.57,4.047,25.567,25.567,0,0,0,.992,2.758c1.208,3.062,2.864,7.255,2.139,9.645A.209.209,0,0,1,2293.528,1242.25Z" transform="translate(-2250.062 -1203.476)"/>
        <path id="Path_16742" data-name="Path 16742" d="M2223.177,1314.571a1.342,1.342,0,1,0,1.112,1.226A1.187,1.187,0,0,0,2223.177,1314.571Z" transform="translate(-2189.335 -1284.59)" fill-rule="evenodd"/>
        <path id="Path_16743" data-name="Path 16743" d="M2335.376,1288.612a1.342,1.342,0,1,0,1.112,1.225A1.188,1.188,0,0,0,2335.376,1288.612Z" transform="translate(-2289.8 -1261.346)" fill-rule="evenodd"/>
        <path id="Path_16744" data-name="Path 16744" d="M2293.528,1242.25a.215.215,0,0,1-.061-.009.21.21,0,0,1-.139-.261c.682-2.25-.942-6.365-2.127-9.37a25.612,25.612,0,0,1-1.01-2.816c-.963-4.1,4.088-5.787,4.139-5.8a.209.209,0,0,1,.129.4,8.173,8.173,0,0,0-2.291,1.264,3.812,3.812,0,0,0-1.57,4.047,25.567,25.567,0,0,0,.992,2.758c1.208,3.062,2.864,7.255,2.139,9.645A.209.209,0,0,1,2293.528,1242.25Z" transform="translate(-2250.062 -1203.476)"/>
      </g>
      <g id="Group_15608" data-name="Group 15608" transform="translate(72.964 111.742)">
        <line id="Line_547" data-name="Line 547" x2="0.07" y2="12.016" transform="translate(13.597 28.937)" fill="none" stroke="#000" stroke-linecap="round" stroke-linejoin="round" stroke-width="5"/>
        <path id="Path_16735" data-name="Path 16735" d="M918.562,664.064h0a13.43,13.43,0,0,1-13.507-13.352l-.089-15.429,26.86-.156.089,15.43A13.431,13.431,0,0,1,918.562,664.064Z" transform="translate(-904.965 -635.127)" fill="#fff" stroke="#000" stroke-width="1"/>
        <path id="Path_16736" data-name="Path 16736" d="M933.564,670.2a11.77,11.77,0,1,1-23.54.135l-.021-3.57a9.063,9.063,0,0,1,5.755-.235c2.777.67,5.563,1.9,8.376,1.4,3.3-.586,6.272-3.5,9.4-3.558Z" transform="translate(-908.276 -654.35)"/>
      </g>
      <path id="Path_16737" data-name="Path 16737" d="M724.26,681.861l-5.216,23.818,46.593-5.911,9.388-4.694c2.434-1.217,10.257-2.26,11.3-1.3s1.565,14.691.7,16.777-13.387,9.04-20.341,9.91c0,0-56.5,20.8-69.252,10.605s1.69-57.629,1.69-57.629Z" transform="translate(-692.169 -548.557)" fill="#fff" stroke="#000" stroke-width="1"/>
    </g>
  </g>
</svg>
