<svg  viewBox="0 0 381.189 254.952">
  <g id="Group_16015" data-name="Group 16015" transform="translate(-206.496 -1397.805)">
    <g id="Group_15462" data-name="Group 15462" transform="translate(232.19 1398.348)">
      <g id="Group_15437" data-name="Group 15437" transform="translate(0)">
        <path id="Path_16619" data-name="Path 16619" d="M1278.39,974.745s-39.457,12.31-45.5,72.821-66.023,69.944-61.3,121.5,113.827,52.951,138.264,16.7,32.607-179.5-3.7-203.8Z" transform="translate(-1171.332 -972.784)" stroke="#000" stroke-width="1"/>
        <g id="Group_15435" data-name="Group 15435" transform="translate(88.568)">
          <g id="Group_15430" data-name="Group 15430" transform="translate(15.427 58.757)">
            <path id="Path_16620" data-name="Path 16620" d="M2009.329,1781.969l-.006.115-.23-.235C2009.172,1781.891,2009.25,1781.929,2009.329,1781.969Z" transform="translate(-2009.093 -1738.457)" fill="#ffc9b3"/>
            <g id="Group_15429" data-name="Group 15429" transform="translate(4.448)" opacity="0.4" style="mix-blend-mode: multiply;isolation: isolate">
              <path id="Path_16621" data-name="Path 16621" d="M2075.15,1447.7l.229,5.78.059,1.618c-4.829-.011-10.553-1.709-15.354-4.1-6.669-3.325-11.095-7.675-12.933-9.148-1.615-1.3-2.188-5.023-2.224-9.568l17.271,8.816,10.582,5.461Z" transform="translate(-2044.926 -1432.285)" fill="#966954" fill-rule="evenodd" opacity="0.4" style="mix-blend-mode: multiply;isolation: isolate"/>
            </g>
          </g>
          <g id="Group_15434" data-name="Group 15434">
            <path id="Path_16622" data-name="Path 16622" d="M1946.918,1088.289c-3.687-31.669-14.109-38.7-14.109-38.7l-37.332,12.733s-.765,8.169-.825,17.1c-3.169-.675-6.441-.6-8.3,1.658-2.316,2.82-1.6,7.181-.558,9.028a13.5,13.5,0,0,0,9.923,6.7l2.276,46.131,17.1,2.988,20.806-2.428-.657-23.721-.059-1.619-.179-4.536a13.792,13.792,0,0,0,7.822-4.191C1948.61,1102.906,1947.987,1097.474,1946.918,1088.289Z" transform="translate(-1884.816 -1038.335)" fill="#fff" stroke="#000" stroke-width="1" fill-rule="evenodd"/>
            <g id="Group_15433" data-name="Group 15433" transform="translate(41.887 40.922)">
              <g id="Group_15431" data-name="Group 15431" transform="translate(0 3.222)">
                <path id="Path_16623" data-name="Path 16623" d="M2223.351,1314.571a1.592,1.592,0,1,0,1.32,1.455A1.409,1.409,0,0,0,2223.351,1314.571Z" transform="translate(-2222.249 -1314.569)" fill-rule="evenodd"/>
              </g>
              <g id="Group_15432" data-name="Group 15432" transform="translate(13.928)">
                <path id="Path_16624" data-name="Path 16624" d="M2335.55,1288.612a1.592,1.592,0,1,0,1.32,1.455A1.41,1.41,0,0,0,2335.55,1288.612Z" transform="translate(-2334.448 -1288.61)" fill-rule="evenodd"/>
              </g>
              <path id="Path_16625" data-name="Path 16625" d="M2245.233,1422.809c.953.463,2.476,1.2,4.47,2.159a1.063,1.063,0,0,1,.286,1.725c-.642.6-1.756,1.056-3.609.348-2.286-.873-2.72-2.292-2.664-3.36A1.053,1.053,0,0,1,2245.233,1422.809Z" transform="translate(-2241.047 -1406.056)"/>
            </g>
            <path id="Path_16626" data-name="Path 16626" d="M1951.554,976.363a47.69,47.69,0,0,0-7.212,6.177,106.926,106.926,0,0,1-28.054,20.553c-.473.238-.743.373-.747.372-16.407,3.3-16.246-12.213-16.246-12.213l-.241-2.553a27.232,27.232,0,0,1,19.035-28.537,27.736,27.736,0,0,1,4.47-.973,27.177,27.177,0,0,1,23.3,8.186A26.57,26.57,0,0,1,1951.554,976.363Z" transform="translate(-1897.183 -958.948)" stroke="#000" stroke-width="1"/>
          </g>
        </g>
        <g id="Group_15436" data-name="Group 15436" transform="translate(138.874 32.9)">
          <path id="Path_16627" data-name="Path 16627" d="M2294.175,1245.667a.256.256,0,0,1-.072-.01.249.249,0,0,1-.166-.31c.81-2.671-1.118-7.556-2.525-11.122a30.454,30.454,0,0,1-1.2-3.343c-1.143-4.87,4.853-6.87,4.914-6.889a.248.248,0,0,1,.153.472,9.705,9.705,0,0,0-2.719,1.5,4.526,4.526,0,0,0-1.864,4.8,30.317,30.317,0,0,0,1.178,3.274c1.435,3.635,3.4,8.612,2.539,11.449A.248.248,0,0,1,2294.175,1245.667Z" transform="translate(-2290.068 -1223.98)"/>
        </g>
      </g>
      <g id="Group_15439" data-name="Group 15439" transform="translate(43.207 86.28)">
        <g id="Group_15438" data-name="Group 15438">
          <path id="Path_16628" data-name="Path 16628" d="M1656.146,1669.212a94.553,94.553,0,0,0-24.98-11.116c-7.246-2.028-15.861-4.1-15.861-4.1s2.182,12.927-15.1,14.42-23.375-11.775-23.375-11.775-58.946,11.507-57.4,46.543,10.1,118.641,10.1,118.641H1673.4l-8.069-83.915,75.35,39.227,26.532-47.065S1673.962,1680.472,1656.146,1669.212Z" transform="translate(-1519.399 -1654)" fill="#e23744" fill-rule="evenodd"/>
        </g>
      </g>
      <g id="Group_15440" data-name="Group 15440" transform="translate(43.189 108.231)">
        <path id="Path_16629" data-name="Path 16629" d="M1576.428,1830.837l19.824,74.972-62.847,19.165-14.153-70.453Z" transform="translate(-1519.252 -1830.837)" fill="#e23744" fill-rule="evenodd"/>
      </g>
      <g id="Group_15455" data-name="Group 15455" transform="translate(250.099 60.573)">
        <g id="Group_15454" data-name="Group 15454">
          <g id="Group_15453" data-name="Group 15453">
            <g id="Group_15444" data-name="Group 15444">
              <g id="Group_15441" data-name="Group 15441">
                <path id="Path_16630" data-name="Path 16630" d="M3252.4,1515.753q-.95,2.834-2,5.987c-9.808,29.606-21.835,63.166-39.961,71.911-28,13.512-24.19-43.662-24.19-43.662s18.76-35.6,25.635-52.77c1.683-4.2,2.654-7.3,2.463-8.5-.969-6.094-6.609-15.617-2.751-20.295s7.174,4.239,10.991,4.782c3.1.426,6.435-20.073,14.7-25.647a3.84,3.84,0,0,1,5.917,3.817c-.612,3.63-1.548,8.786-2.673,13.6a1.381,1.381,0,0,1,1.42-.267c.6.282,8.449,1.871,7.2,9.874a2.517,2.517,0,0,1,2.9-.2c3.934,1.735,4.695,4.766,3.712,9.361l.05.016C3262.55,1486.169,3259.7,1494,3252.4,1515.753Z" transform="translate(-3186.077 -1446.909)" fill="#fff" stroke="#000" stroke-width="1"/>
              </g>
              <g id="Group_15443" data-name="Group 15443" transform="translate(42.711 37.16)">
                <g id="Group_15442" data-name="Group 15442">
                  <path id="Path_16631" data-name="Path 16631" d="M3535.614,1758.221a.249.249,0,0,1-.226-.145l-5.217-11.461a.248.248,0,0,1,.452-.206l5.115,11.238c1.158-.508,6.514-2.838,10-4.053a.248.248,0,1,1,.164.469c-3.884,1.355-10.121,4.11-10.184,4.137A.246.246,0,0,1,3535.614,1758.221Z" transform="translate(-3530.149 -1746.264)" stroke="#000" stroke-width="0.5"/>
                </g>
              </g>
            </g>
            <g id="Group_15446" data-name="Group 15446" transform="translate(49.675 30.753)">
              <g id="Group_15445" data-name="Group 15445">
                <path id="Path_16632" data-name="Path 16632" d="M3592,1703.842a4.989,4.989,0,0,1-2.238-.567c-5.46-2.714-2.938-8.425-2.912-8.482a.248.248,0,0,1,.452.206,7.675,7.675,0,0,0-.569,3,5.294,5.294,0,0,0,3.25,4.834,4.041,4.041,0,0,0,3.573.178c3.5-1.548,5.337-7.907,5.355-7.971a.248.248,0,1,1,.478.135c-.076.271-1.915,6.647-5.631,8.29A4.3,4.3,0,0,1,3592,1703.842Z" transform="translate(-3586.244 -1694.647)" stroke="#000" stroke-width="0.5"/>
              </g>
            </g>
            <g id="Group_15448" data-name="Group 15448" transform="translate(57.946 37.174)">
              <g id="Group_15447" data-name="Group 15447">
                <path id="Path_16633" data-name="Path 16633" d="M3657.562,1755.431a4.14,4.14,0,0,1-1.764-.411,4.755,4.755,0,0,1-2.626-2.735,7.549,7.549,0,0,1,.48-5.193.248.248,0,0,1,.446.218,7.178,7.178,0,0,0-.458,4.812,4.274,4.274,0,0,0,2.367,2.448,3.469,3.469,0,0,0,2.949.066c3.463-1.492,5.664-8.023,5.686-8.088a.248.248,0,1,1,.471.156c-.092.277-2.292,6.807-5.96,8.388A4,4,0,0,1,3657.562,1755.431Z" transform="translate(-3652.879 -1746.377)" stroke="#000" stroke-width="0.5"/>
              </g>
            </g>
            <g id="Group_15450" data-name="Group 15450" transform="translate(62.83 45.102)">
              <g id="Group_15449" data-name="Group 15449">
                <path id="Path_16634" data-name="Path 16634" d="M3696.985,1817.377a3.87,3.87,0,0,1-2.273-.843,5.3,5.3,0,0,1-2.47-3.427,2.886,2.886,0,0,1,.538-2.1.248.248,0,0,1,.382.318,2.428,2.428,0,0,0-.425,1.734,4.861,4.861,0,0,0,2.268,3.076,2.967,2.967,0,0,0,2.808.6c2.7-.951,4.167-6.254,4.181-6.307a.248.248,0,1,1,.479.13c-.062.228-1.548,5.61-4.5,6.646A2.979,2.979,0,0,1,3696.985,1817.377Z" transform="translate(-3692.218 -1810.246)" stroke="#000" stroke-width="0.5"/>
              </g>
            </g>
            <g id="Group_15452" data-name="Group 15452" transform="translate(49.396 8.603)">
              <g id="Group_15451" data-name="Group 15451">
                <path id="Path_16635" data-name="Path 16635" d="M3584.246,1541.735a.235.235,0,0,1-.065-.009.248.248,0,0,1-.174-.3l6.835-25.021a.248.248,0,1,1,.479.131l-6.836,25.021A.248.248,0,0,1,3584.246,1541.735Z" transform="translate(-3583.998 -1516.217)" fill="#604549"/>
              </g>
            </g>
          </g>
        </g>
      </g>
      <g id="Group_15456" data-name="Group 15456" transform="translate(187.651 163.094)">
        <rect id="Rectangle_2392" data-name="Rectangle 2392" width="0.497" height="91.465" transform="translate(0 0.051) rotate(-5.842)" stroke="#000" stroke-width="0.5"/>
      </g>
      <g id="Group_15457" data-name="Group 15457" transform="translate(95.79 46.06)">
        <path id="Path_16636" data-name="Path 16636" d="M1950.572,1334.965a.247.247,0,0,1-.129-.037l-7.324-4.469a.248.248,0,0,1,.259-.424l7.324,4.469a.248.248,0,0,1-.129.46Z" transform="translate(-1942.999 -1329.999)"/>
      </g>
      <path id="Path_16637" data-name="Path 16637" d="M3253.268,1871.009c-.633,1.889-2.049,6.411-2.049,6.411s-19.523,65.009-37.649,73.754c-28,13.512-29.108-44.843-29.108-44.843s20.306-37.282,27.18-54.451Z" transform="translate(-2936.28 -1741.377)" fill="#e23744" fill-rule="evenodd"/>
      <g id="Group_15458" data-name="Group 15458" transform="translate(57.061 181.491)">
        <path id="Path_16638" data-name="Path 16638" d="M1786.292,2469.536l-31.2,17.732-107.395,3.859-13.827-45.524-2.064-6.793-.809-2.667L1683.26,2421l.038.129,4.535,15.044,5.978,19.833Z" transform="translate(-1631 -2421)" fill="#e23744" fill-rule="evenodd"/>
      </g>
      <g id="Group_15460" data-name="Group 15460" transform="translate(48.998 149.036)">
        <g id="Group_15459" data-name="Group 15459">
          <path id="Path_16639" data-name="Path 16639" d="M1683.779,2262.389h-.057l-98.757-1.12-18.913-80.876.484-.113,18.824,80.5,98.311,1.114,44.891-21.226-90.078-13.48a4.8,4.8,0,0,1-3.995-3.794l-12.933-63.743.487-.1,12.825,63.214a5.075,5.075,0,0,0,4.223,4.01l91.16,13.642Z" transform="translate(-1566.052 -2159.55)" stroke="#000" stroke-width="0.5"/>
        </g>
      </g>
      <g id="Group_15461" data-name="Group 15461" transform="translate(90.222 88.14)">
        <path id="Path_16640" data-name="Path 16640" d="M1930.226,1689.536a40.325,40.325,0,0,1-13.235-2.145,36.759,36.759,0,0,1-10.751-5.878,33.551,33.551,0,0,1-8.1-8.977l.435-.239a33.07,33.07,0,0,0,7.985,8.84c5.022,3.951,13.642,8.518,26.182,7.834,11.148-.609,16.463-6.012,18.958-10.437a22.125,22.125,0,0,0,2.779-9.551l.5,0a22.678,22.678,0,0,1-2.843,9.79,19.525,19.525,0,0,1-6.614,6.988,26.222,26.222,0,0,1-12.749,3.7Q1931.489,1689.536,1930.226,1689.536Z" transform="translate(-1898.144 -1668.982)" stroke="#000" stroke-width="0.5"/>
      </g>
    </g>
    <path id="Path_16641" data-name="Path 16641" d="M1065.6,2967.483H688.592c-1.155,0-2.092-.332-2.092-.742s.936-.742,2.092-.742H1065.6c1.155,0,2.092.332,2.092.742S1066.752,2967.483,1065.6,2967.483Z" transform="translate(-480.004 -1315.001)"/>
    <g id="Group_15479" data-name="Group 15479" transform="translate(361.746 1566.806)">
      <g id="Group_15476" data-name="Group 15476" transform="translate(0 0)">
        <g id="Group_15475" data-name="Group 15475">
          <g id="Group_15469" data-name="Group 15469" transform="translate(12.7 73.296)">
            <g id="Group_15463" data-name="Group 15463" transform="translate(61.042)">
              <path id="Path_16642" data-name="Path 16642" d="M2809.05,2883.463a3,3,0,0,1,3-3h3.131a3.008,3.008,0,0,1,3.009,3v1.364a3.007,3.007,0,0,1-3.009,3h-3.131a3,3,0,0,1-3-3Z" transform="translate(-2809.05 -2880.459)" fill="gray" fill-rule="evenodd"/>
            </g>
            <g id="Group_15464" data-name="Group 15464" transform="translate(48.842)">
              <path id="Path_16643" data-name="Path 16643" d="M2710.768,2883.463a3,3,0,0,1,3-3h3.13a3.006,3.006,0,0,1,3.009,3v1.364a3.006,3.006,0,0,1-3.009,3h-3.13a2.995,2.995,0,0,1-3-3Z" transform="translate(-2710.768 -2880.459)" fill="gray" fill-rule="evenodd"/>
            </g>
            <g id="Group_15465" data-name="Group 15465" transform="translate(36.63)">
              <path id="Path_16644" data-name="Path 16644" d="M2612.391,2883.463a3,3,0,0,1,3-3h3.131a3.007,3.007,0,0,1,3.009,3v1.364a3.006,3.006,0,0,1-3.009,3h-3.131a3,3,0,0,1-3-3Z" transform="translate(-2612.391 -2880.459)" fill-rule="evenodd"/>
            </g>
            <g id="Group_15466" data-name="Group 15466" transform="translate(24.418)">
              <path id="Path_16645" data-name="Path 16645" d="M2514.014,2883.463a3,3,0,0,1,3-3h3.131a3.007,3.007,0,0,1,3.009,3v1.364a3.007,3.007,0,0,1-3.009,3h-3.131a2.995,2.995,0,0,1-3-3Z" transform="translate(-2514.014 -2880.459)" fill-rule="evenodd"/>
            </g>
            <g id="Group_15467" data-name="Group 15467" transform="translate(12.206)">
              <path id="Path_16646" data-name="Path 16646" d="M2415.638,2883.463a3,3,0,0,1,3-3h3.131a3.007,3.007,0,0,1,3.009,3v1.364a3.006,3.006,0,0,1-3.009,3h-3.131a3,3,0,0,1-3-3Z" transform="translate(-2415.638 -2880.459)" fill-rule="evenodd"/>
            </g>
            <g id="Group_15468" data-name="Group 15468">
              <path id="Path_16647" data-name="Path 16647" d="M2317.308,2883.463a2.995,2.995,0,0,1,3-3h3.131a3.007,3.007,0,0,1,3.009,3v1.364a3.007,3.007,0,0,1-3.009,3h-3.131a2.994,2.994,0,0,1-3-3Z" transform="translate(-2317.308 -2880.459)" fill-rule="evenodd"/>
            </g>
          </g>
          <g id="Group_15470" data-name="Group 15470" transform="translate(0 74.779)">
            <path id="Path_16648" data-name="Path 16648" d="M2315.22,2892.4h-95.692a4.528,4.528,0,0,0,0,9.057h95.692Z" transform="translate(-2215 -2892.405)" fill="#fff" stroke="#000" stroke-width="1" fill-rule="evenodd"/>
          </g>
          <g id="Group_15472" data-name="Group 15472" transform="translate(56.349)">
            <g id="Group_15471" data-name="Group 15471">
              <path id="Path_16649" data-name="Path 16649" d="M2818.594,2300.195A8.536,8.536,0,0,0,2816.9,2293c-1.626-2.02-22.854.848-25.44.848-26.717,0-77.412-3.848-99.556-3.848a8.334,8.334,0,0,0-8.31,6.548c-3.178,14.55-10.682,49.244-14.467,66.61a8.567,8.567,0,0,0,8.367,10.382h118.272a8.56,8.56,0,0,0,8.367-6.743C2807.3,2352.249,2814.818,2317.554,2818.594,2300.195Z" transform="translate(-2668.934 -2290)" fill="#fff" stroke="#000" stroke-width="1" fill-rule="evenodd"/>
            </g>
          </g>
          <g id="Group_15474" data-name="Group 15474" transform="translate(63.76 0.049)">
            <g id="Group_15473" data-name="Group 15473">
              <path id="Path_16650" data-name="Path 16650" d="M2878.32,2300.766a8.563,8.563,0,0,0-8.366-10.374h-118.28a8.556,8.556,0,0,0-8.367,6.737c-3.169,14.608-10.69,49.247-14.475,66.661a8.562,8.562,0,0,0,8.366,10.382h118.281a8.577,8.577,0,0,0,8.367-6.744C2867.014,2352.819,2874.535,2318.18,2878.32,2300.766Z" transform="translate(-2728.635 -2290.392)" fill="#fff" stroke="#000" stroke-width="1" fill-rule="evenodd"/>
            </g>
          </g>
        </g>
      </g>
      <g id="Group_15478" data-name="Group 15478" transform="translate(139.376 30.945)">
        <g id="Group_15477" data-name="Group 15477" transform="translate(0 0)">
          <ellipse id="Ellipse_622" data-name="Ellipse 622" cx="8.811" cy="8.811" rx="8.811" ry="8.811" transform="translate(0 17.621) rotate(-89.514)" fill="#fff" stroke="#000" stroke-width="1"/>
        </g>
      </g>
    </g>
    <g id="Group_15525" data-name="Group 15525" transform="translate(206.496 1525.501)">
      <g id="Group_15502" data-name="Group 15502" transform="translate(23.352 0)">
        <g id="Group_15501" data-name="Group 15501">
          <path id="Path_16659" data-name="Path 16659" d="M1176.847,2021.488s21.343-28-5.871-57.982c-8.11-8.938-17.267-11.41-18.109-8.1-.417,1.636-1.253,7.276,2.109,18.115C1159.034,1986.607,1173.209,2014.054,1176.847,2021.488Z" transform="translate(-1152.461 -1954)" fill="#6db39a" fill-rule="evenodd"/>
        </g>
      </g>
      <g id="Group_15504" data-name="Group 15504" transform="translate(53.099 25.357)">
        <g id="Group_15503" data-name="Group 15503">
          <path id="Path_16660" data-name="Path 16660" d="M1392.09,2198.616s1.86-31.763,27.094-40.3a.811.811,0,0,1,.923.3c.784,1.126,2.175,4.345-1.01,10.655C1414.99,2177.41,1395.984,2194.723,1392.09,2198.616Z" transform="translate(-1392.09 -2158.27)" fill="#6db39a" fill-rule="evenodd"/>
        </g>
      </g>
      <g id="Group_15506" data-name="Group 15506" transform="translate(5.35 18.339)">
        <g id="Group_15505" data-name="Group 15505">
          <path id="Path_16661" data-name="Path 16661" d="M1038.9,2148.755s.944-14.56-8.866-31.41c-9.329-16.032-19.072-15.68-20.634-15.588-3.52.216-2.728,18.936,5.782,31.976S1038.9,2148.755,1038.9,2148.755Z" transform="translate(-1007.438 -2101.738)" fill="#6db39a" fill-rule="evenodd"/>
        </g>
      </g>
      <g id="Group_15508" data-name="Group 15508" transform="translate(58.465 49.188)">
        <g id="Group_15507" data-name="Group 15507">
          <path id="Path_16662" data-name="Path 16662" d="M1435.319,2374.805s4.247-15.647,14.578-20.758,9.953-4.272,9.813-2.088-.67,10.9-7.8,17.447S1435.319,2374.805,1435.319,2374.805Z" transform="translate(-1435.319 -2350.247)" fill="#6db39a" fill-rule="evenodd"/>
        </g>
      </g>
      <g id="Group_15511" data-name="Group 15511" transform="translate(0 74.139)">
        <g id="Group_15510" data-name="Group 15510">
          <g id="Group_15509" data-name="Group 15509">
            <path id="Path_16663" data-name="Path 16663" d="M984.161,2551.517s6.211,24.467-16.014,39.767c0,0-9.425-19.154,1.382-33.194a28.472,28.472,0,0,1,6.306-5.464A12.649,12.649,0,0,1,984.161,2551.517Z" transform="translate(-964.339 -2551.25)" fill="#6db39a" fill-rule="evenodd"/>
          </g>
        </g>
      </g>
      <g id="Group_15512" data-name="Group 15512" transform="translate(9.024 23.794)">
        <path id="Path_16664" data-name="Path 16664" d="M1075.621,2226.779c-.01-.11-1.045-11.187-6.3-26.611a150.194,150.194,0,0,0-32.283-54.152l.361-.341a144.8,144.8,0,0,1,20.719,28.219,155.2,155.2,0,0,1,11.678,26.13c5.273,15.476,6.312,26.6,6.321,26.711Z" transform="translate(-1037.036 -2145.676)"/>
      </g>
      <g id="Group_15513" data-name="Group 15513" transform="translate(3.425 70.465)">
        <path id="Path_16665" data-name="Path 16665" d="M991.934,2558.214a38.253,38.253,0,0,1,1.618-9.379,66.06,66.06,0,0,1,11.4-22.066c2.946-3.828,6.107-5.521,9.4-5.031,4.017.6,8.124,4.362,12.2,11.192a71.516,71.516,0,0,1,4.921,10.055l-.465.176a71.044,71.044,0,0,0-4.886-9.982c-2.75-4.6-7.037-10.235-11.848-10.95-3.1-.46-6.1,1.17-8.929,4.844a65.573,65.573,0,0,0-11.312,21.876,37.814,37.814,0,0,0-1.606,9.265Z" transform="translate(-991.934 -2521.655)"/>
      </g>
      <g id="Group_15514" data-name="Group 15514" transform="translate(30.007 7.405)">
        <path id="Path_16666" data-name="Path 16666" d="M1217.541,2107.211l-.458-.193a68.763,68.763,0,0,0,3.079-10.682,151.9,151.9,0,0,0,3.222-31.274c.1-14.164-4.612-27.3-8.58-35.831a97.928,97.928,0,0,0-8.732-15.279l.4-.3a98.474,98.474,0,0,1,8.777,15.354,99.5,99.5,0,0,1,5.992,16.372,74.917,74.917,0,0,1,2.64,19.683,152.385,152.385,0,0,1-3.238,31.4A69.146,69.146,0,0,1,1217.541,2107.211Z" transform="translate(-1206.073 -2013.657)"/>
      </g>
      <g id="Group_15515" data-name="Group 15515" transform="translate(47.609 29.442)">
        <path id="Path_16667" data-name="Path 16667" d="M1347.863,2251.355c-.015-6.549,1.578-13.791,4.734-21.523a111.472,111.472,0,0,1,10.46-19.331,151.742,151.742,0,0,1,15.229-19.322l.357.345a151.169,151.169,0,0,0-15.178,19.259c-6.91,10.4-15.139,25.876-15.105,40.57Z" transform="translate(-1347.863 -2191.18)"/>
      </g>
      <g id="Group_15516" data-name="Group 15516" transform="translate(52.592 52.128)">
        <path id="Path_16668" data-name="Path 16668" d="M1388.266,2416a27.378,27.378,0,0,1,2.921-16.255,53.538,53.538,0,0,1,9.743-13.374,88.169,88.169,0,0,1,15.2-12.436l.26.423a87.678,87.678,0,0,0-15.111,12.366c-6.676,6.908-14.267,17.581-12.523,29.2Z" transform="translate(-1388.005 -2373.935)"/>
      </g>
      <g id="Group_15524" data-name="Group 15524" transform="translate(24.985 77.948)">
        <g id="Group_15520" data-name="Group 15520" transform="translate(1.734 2.489)">
          <g id="Group_15519" data-name="Group 15519">
            <g id="Group_15518" data-name="Group 15518">
              <g id="Group_15517" data-name="Group 15517">
                <rect id="Rectangle_2395" data-name="Rectangle 2395" width="37.735" height="45.061" fill="#fff" stroke="#000" stroke-width="0.5"/>
              </g>
            </g>
          </g>
        </g>
        <g id="Group_15523" data-name="Group 15523">
          <g id="Group_15522" data-name="Group 15522">
            <g id="Group_15521" data-name="Group 15521">
              <rect id="Rectangle_2396" data-name="Rectangle 2396" width="41.204" height="6.21" fill="#fff" stroke="#000" stroke-width="0.5"/>
            </g>
          </g>
        </g>
      </g>
    </g>
    <g id="Group_15581" data-name="Group 15581" transform="translate(491.816 1427.545)">
      <g id="Group_15552" data-name="Group 15552" transform="translate(0)">
        <g id="Group_15550" data-name="Group 15550" transform="translate(0.248 0.248)">
          <rect id="Rectangle_2399" data-name="Rectangle 2399" width="76.821" height="70.241" fill="#fff" stroke="#000" stroke-width="0.5"/>
        </g>
        <g id="Group_15551" data-name="Group 15551">
          <path id="Path_16677" data-name="Path 16677" d="M3340.137,1264.89H3262.82v-70.738h77.317Zm-76.821-.5h76.325v-69.745h-76.325Z" transform="translate(-3262.82 -1194.152)"/>
        </g>
      </g>
      <g id="Group_15558" data-name="Group 15558" transform="translate(66.05 4.993)">
        <g id="Group_15557" data-name="Group 15557" transform="translate(0 0)">
          <g id="Group_15554" data-name="Group 15554" transform="translate(0.002)">
            <g id="Group_15553" data-name="Group 15553" transform="translate(0)">
              <rect id="Rectangle_2400" data-name="Rectangle 2400" width="0.497" height="7.293" transform="matrix(0.686, -0.728, 0.728, 0.686, 0, 0.361)"/>
            </g>
          </g>
          <g id="Group_15556" data-name="Group 15556" transform="translate(0 0)">
            <g id="Group_15555" data-name="Group 15555">
              <rect id="Rectangle_2401" data-name="Rectangle 2401" width="7.292" height="0.497" transform="translate(0 5) rotate(-43.283)"/>
            </g>
          </g>
        </g>
      </g>
      <g id="Group_15580" data-name="Group 15580" transform="translate(9.987 18.35)">
        <g id="Group_15568" data-name="Group 15568">
          <g id="Group_15567" data-name="Group 15567">
            <g id="Group_15560" data-name="Group 15560">
              <g id="Group_15559" data-name="Group 15559">
                <path id="Path_16678" data-name="Path 16678" d="M3351.558,1350.258h-8.284v-8.283h8.284Zm-7.787-.5h7.29v-7.29h-7.29Z" transform="translate(-3343.275 -1341.975)"/>
              </g>
            </g>
            <g id="Group_15562" data-name="Group 15562" transform="translate(0 12.165)">
              <g id="Group_15561" data-name="Group 15561">
                <path id="Path_16679" data-name="Path 16679" d="M3351.558,1448.258h-8.284v-8.283h8.284Zm-7.787-.5h7.29v-7.29h-7.29Z" transform="translate(-3343.275 -1439.975)"/>
              </g>
            </g>
            <g id="Group_15564" data-name="Group 15564" transform="translate(0 24.331)">
              <g id="Group_15563" data-name="Group 15563">
                <path id="Path_16680" data-name="Path 16680" d="M3351.558,1546.264h-8.284v-8.283h8.284Zm-7.787-.5h7.29v-7.29h-7.29Z" transform="translate(-3343.275 -1537.981)"/>
              </g>
            </g>
            <g id="Group_15566" data-name="Group 15566" transform="translate(0 36.497)">
              <g id="Group_15565" data-name="Group 15565">
                <path id="Path_16681" data-name="Path 16681" d="M3351.558,1644.271h-8.284v-8.283h8.284Zm-7.787-.5h7.29v-7.29h-7.29Z" transform="translate(-3343.275 -1635.988)"/>
              </g>
            </g>
          </g>
        </g>
        <g id="Group_15570" data-name="Group 15570" transform="translate(0.935 1.405)">
          <g id="Group_15569" data-name="Group 15569">
            <path id="Path_16682" data-name="Path 16682" d="M3354.254,1359.007l-3.446-2.452.288-.4,3,2.136,2.89-4.99.43.249Z" transform="translate(-3350.808 -1353.296)"/>
          </g>
        </g>
        <g id="Group_15579" data-name="Group 15579" transform="translate(13.221 4.207)">
          <g id="Group_15572" data-name="Group 15572">
            <g id="Group_15571" data-name="Group 15571">
              <rect id="Rectangle_2402" data-name="Rectangle 2402" width="42.385" height="0.497"/>
            </g>
          </g>
          <g id="Group_15574" data-name="Group 15574" transform="translate(0 12.206)">
            <g id="Group_15573" data-name="Group 15573">
              <rect id="Rectangle_2403" data-name="Rectangle 2403" width="42.385" height="0.497"/>
            </g>
          </g>
          <g id="Group_15576" data-name="Group 15576" transform="translate(0 24.413)">
            <g id="Group_15575" data-name="Group 15575">
              <rect id="Rectangle_2404" data-name="Rectangle 2404" width="42.385" height="0.497"/>
            </g>
          </g>
          <g id="Group_15578" data-name="Group 15578" transform="translate(0 36.62)">
            <g id="Group_15577" data-name="Group 15577">
              <rect id="Rectangle_2405" data-name="Rectangle 2405" width="42.385" height="0.497"/>
            </g>
          </g>
        </g>
      </g>
    </g>
    <path id="Path_16689" data-name="Path 16689" d="M-13180.66,9316.889s-8.964-.3-15.716,8.738-16.012,24.653-16.012,24.653l-4.177,20.89s14-19.595,25.277-18.062,12.322-14.525,12.322-14.525Z" transform="translate(13521.441 -7914.955)"/>
  </g>
</svg>
